<svg xmlns="http://www.w3.org/2000/svg" width="298.58" height="447.69" viewBox="0 0 298.58 447.69"><path d="M106,449,31.58,406c-2.21-1.27-2.21-3.34,0-4.61L218.4,293.56a8.88,8.88,0,0,1,8,0l74.43,43c2.21,1.28,2.21,3.34,0,4.61L114,449A8.85,8.85,0,0,1,106,449Z" transform="translate(-3.91 -2.27)" style="fill:#ebebeb"/><path d="M203.5,293.56,5.6,399.34c-2.26,1.31-2.26,3.43,0,4.73l15.12,8.72a9,9,0,0,0,8.19,0L226.82,307c2.26-1.31,2.26-3.42,0-4.73l-15.12-8.73A9,9,0,0,0,203.5,293.56Z" transform="translate(-3.91 -2.27)" style="fill:#ebebeb"/><path d="M15.4,402.42a3.12,3.12,0,0,1,1.7-2.5L186,293.72V138.3l21-25.92a31.18,31.18,0,0,0,6-16.82V8c0-5.23-3.6-7.23-8-4.47L17.1,120.25a3.12,3.12,0,0,0-1.7,2.5Z" transform="translate(-3.91 -2.27)" style="fill:#c84080"/><path d="M201.39,31.33c0-5.23-3.71-7.41-8.28-4.88l-172,95.19a9.16,9.16,0,0,1-5.62.84V402.15h0a3.22,3.22,0,0,1,1.66-2.23l168.94-106.2V138.3l15.35-19Z" transform="translate(-3.91 -2.27)" style="opacity:0.300000011920929;isolation:isolate"/><path d="M16.94,404.65a9,9,0,0,0,8-.07l172-95.19c4.58-2.53,8.28-8.82,8.28-14V34.6c0-5.22-3.7-7.41-8.28-4.88l-172,95.19a9,9,0,0,1-8,.08,2.66,2.66,0,0,1-1.54-2.2V402.42A2.67,2.67,0,0,0,16.94,404.65Z" transform="translate(-3.91 -2.27)" style="fill:#c84080"/><path d="M16.94,404.65a9,9,0,0,0,8-.07l172-95.19c4.58-2.53,8.28-8.82,8.28-14V34.6c0-5.22-3.7-7.41-8.28-4.88l-172,95.19a9,9,0,0,1-8,.08,2.66,2.66,0,0,1-1.54-2.2V402.42A2.67,2.67,0,0,0,16.94,404.65Z" transform="translate(-3.91 -2.27)" style="fill:#fff;opacity:0.300000011920929;isolation:isolate"/><path d="M20.82,125.88A7.93,7.93,0,0,1,17,125a2.7,2.7,0,0,1-1.57-2.2V402.42a2.67,2.67,0,0,0,1.54,2.23,7.94,7.94,0,0,0,3.85.9Z" transform="translate(-3.91 -2.27)" style="fill:#fff;opacity:0.300000011920929;isolation:isolate"/><path d="M43.82,122.69a.47.47,0,0,0-.47.47h0V385a.5.5,0,0,0,.5.5.5.5,0,0,0,.5-.5V123.17a.46.46,0,0,0-.45-.48Zm-15.37,8.88A.47.47,0,0,0,28,132h0V393.86a.47.47,0,0,0,.94,0h0V132a.47.47,0,0,0-.45-.47Zm7.69-4.44a.48.48,0,0,0-.48.47V389.42a.48.48,0,0,0,.48.47.47.47,0,0,0,.47-.47h0V127.6a.47.47,0,0,0-.45-.47Z" transform="translate(-3.91 -2.27)" style="fill:#c84080"/><polygon points="55.85 135.46 51.91 133.18 229.44 30.68 233.4 32.96 55.85 135.46" style="fill:#f0f0f0"/><polygon points="233.4 32.96 233.4 305.62 55.78 408.16 55.85 135.46 233.4 32.96" style="fill:#fafafa"/><path d="M236.35,36.86V307.35L60.64,408.79l.07-270.52L236.35,36.86m1-1.63L59.76,137.73l-.07,272.7L237.3,307.89V35.23Z" transform="translate(-3.91 -2.27)" style="fill:#ebebeb"/><polygon points="55.85 135.46 55.78 408.16 51.95 405.94 51.91 133.18 55.78 135.41 55.85 135.46" style="fill:#e0e0e0"/><path d="M287,332.21v4.58L109.46,439.27l-2-1.13A79.16,79.16,0,0,1,68,369.79V158.22L245.55,55.72l4,2.28V267.28A75,75,0,0,0,287,332.21Z" transform="translate(-3.91 -2.27)" style="fill:#f0f0f0"/><path d="M249.51,267.28V58L72,160.5V369.79a75,75,0,0,0,37.48,64.93L287,332.22A75,75,0,0,1,249.51,267.28ZM72.82,369.79V161L248.63,59.51V267.28a76.07,76.07,0,0,0,36.64,64.92L109.46,433.7A74.33,74.33,0,0,1,72.82,369.79Z" transform="translate(-3.91 -2.27)" style="fill:#e0e0e0"/><path d="M285.27,332.2,109.46,433.7a74.33,74.33,0,0,1-36.64-63.91V161L248.63,59.51V267.28A76.07,76.07,0,0,0,285.27,332.2Z" transform="translate(-3.91 -2.27)" style="fill:#fafafa"/><path d="M72,369.79V160.5l-4-2.28V369.79a79.14,79.14,0,0,0,39.46,68.36l2,1.13v-4.56A75,75,0,0,1,72,369.79Z" transform="translate(-3.91 -2.27)" style="fill:#e0e0e0"/><polygon points="105.56 432.44 105.56 437 283.11 334.51 283.11 329.94 105.56 432.44" style="opacity:0.150000005960464;isolation:isolate"/><path d="M194.19,113.26l42.37-24.47c1-.6,1.89-.17,1.89,1a4,4,0,0,1-1.89,3.14L194.19,117.4c-1.05.6-1.9.17-1.9-1A4,4,0,0,1,194.19,113.26Z" transform="translate(-3.91 -2.27)" style="fill:#e0e0e0"/><path d="M194.19,129.66l42.37-24.47c1-.6,1.89-.17,1.89,1a4,4,0,0,1-1.89,3.14l-42.37,24.46c-1.05.6-1.9.17-1.9-1A4,4,0,0,1,194.19,129.66Z" transform="translate(-3.91 -2.27)" style="fill:#e0e0e0"/><path d="M210.05,112.3,236.56,97c1-.6,1.89-.17,1.89,1a4,4,0,0,1-1.89,3.14l-26.51,15.31c-1,.6-1.9.17-1.9-1A4,4,0,0,1,210.05,112.3Z" transform="translate(-3.91 -2.27)" style="fill:#e0e0e0"/><path d="M92.87,220.24l138.48-80c1.05-.6,1.89-.17,1.89,1a4,4,0,0,1-1.89,3.14l-138.48,80c-1,.61-1.89.18-1.89-1A4.08,4.08,0,0,1,92.87,220.24Z" transform="translate(-3.91 -2.27)" style="fill:#e0e0e0"/><path d="M92.87,228.44l138.48-80c1.05-.6,1.89-.17,1.89,1a4,4,0,0,1-1.89,3.14l-138.48,80c-1,.61-1.89.18-1.89-1A4.08,4.08,0,0,1,92.87,228.44Z" transform="translate(-3.91 -2.27)" style="fill:#e0e0e0"/><path d="M92.87,236.64l138.48-80c1.05-.6,1.89-.17,1.89,1a4,4,0,0,1-1.89,3.14l-138.48,80c-1,.61-1.89.18-1.89-1A4.1,4.1,0,0,1,92.87,236.64Z" transform="translate(-3.91 -2.27)" style="fill:#e0e0e0"/><path d="M92.87,244.84l138.48-80c1.05-.6,1.89-.17,1.89,1a4,4,0,0,1-1.89,3.14l-138.48,80c-1,.61-1.89.18-1.89-1A4.08,4.08,0,0,1,92.87,244.84Z" transform="translate(-3.91 -2.27)" style="fill:#e0e0e0"/><path d="M92.87,261.4l138.48-80c1.05-.61,1.89-.18,1.89,1a4,4,0,0,1-1.89,3.15L92.87,265.5c-1,.6-1.89.17-1.89-1A4.08,4.08,0,0,1,92.87,261.4Z" transform="translate(-3.91 -2.27)" style="fill:#e0e0e0"/><path d="M92.87,269.6l138.48-80c1.05-.61,1.89-.18,1.89.95a4,4,0,0,1-1.89,3.15l-138.48,80c-1,.6-1.89.17-1.89-1A4.08,4.08,0,0,1,92.87,269.6Z" transform="translate(-3.91 -2.27)" style="fill:#e0e0e0"/><path d="M92.87,277.79l138.48-79.94c1.05-.61,1.89-.18,1.89,1a4,4,0,0,1-1.89,3.15L92.87,281.89c-1,.61-1.89.18-1.89-1A4.11,4.11,0,0,1,92.87,277.79Z" transform="translate(-3.91 -2.27)" style="fill:#e0e0e0"/><path d="M92.87,286l138.48-79.94c1.05-.61,1.89-.18,1.89,1a4,4,0,0,1-1.89,3.15L92.87,290.09c-1,.61-1.89.18-1.89-.95A4.1,4.1,0,0,1,92.87,286Z" transform="translate(-3.91 -2.27)" style="fill:#e0e0e0"/><path d="M94.51,310.73l138.48-80c1-.6,1.89-.18,1.89,1a4,4,0,0,1-1.89,3.14l-138.48,80c-1,.6-1.89.17-1.89-1A4.07,4.07,0,0,1,94.51,310.73Z" transform="translate(-3.91 -2.27)" style="fill:#e0e0e0"/><path d="M94.51,319,233,239c1-.6,1.89-.18,1.89,1a4,4,0,0,1-1.89,3.14L94.51,323c-1,.6-1.89.17-1.89-1A4.07,4.07,0,0,1,94.51,319Z" transform="translate(-3.91 -2.27)" style="fill:#e0e0e0"/><path d="M94.51,327.13l74.22-42.88c1-.6,1.89-.17,1.89,1a4.08,4.08,0,0,1-1.89,3.14L94.51,331.27c-1,.6-1.89.17-1.89-1A4,4,0,0,1,94.51,327.13Z" transform="translate(-3.91 -2.27)" style="fill:#e0e0e0"/><path d="M144.58,269.21l49.31-28.51c1-.6,1.89-.18,1.89,1a4,4,0,0,1-1.89,3.14l-49.31,28.51c-1,.6-1.89.17-1.89-1A4.08,4.08,0,0,1,144.58,269.21Z" transform="translate(-3.91 -2.27)" style="fill:#de007b;opacity:0.4"/><path d="M182.07,315.62v-3.1c-6.85,4-12.43,14.61-12.43,23.74l2.33-1.34C172,327.49,176.5,318.84,182.07,315.62Zm9,8.29c0-6.58-4-9.62-9-6.77s-8.95,10.53-8.95,17.11,4,9.63,8.95,6.78,9-10.53,9-17.12Zm-16.77,9.69c0-5.73,3.5-12.41,7.79-14.89.31-.18.61-.32.89-.45l-8.62,16.49C174.3,334.37,174.25,334,174.25,333.6Zm.33,2.81,9.72-18.56c2.51-.43,4.49,1.08,5.23,4l-9.67,18.46c-2.5.46-4.49-1-5.25-3.93Zm15.2-12.88c0,.34,0,.73,0,1.07,0,5.73-3.5,12.41-7.8,14.89a7.75,7.75,0,0,1-.81.42Zm-7.71-14.09c-8.12,4.69-14.74,17.32-14.74,28.15s6.62,15.83,14.74,11.14,14.74-17.3,14.74-28.16S190.17,304.75,182.07,309.44Zm0,37.74c-7.49,4.34-13.57-.28-13.57-10.26s6.08-21.61,13.57-25.93,13.57.28,13.57,10.26S189.56,342.86,182.07,347.18Zm10.13-23.93c0,7.43-4.54,16.09-10.13,19.3v3.1c6.85-4,12.43-14.6,12.43-23.74Z" transform="translate(-3.91 -2.27)" style="fill:#de007b;opacity:0.200000002980232;isolation:isolate"/><path d="M271.17,332.88l-37.36,21.65a1.07,1.07,0,0,1-1.47-.34.89.89,0,0,1-.08-.17v0a1.39,1.39,0,0,1,.58-1.74l37.36-21.66a1.06,1.06,0,0,1,1.45.36c0,.05.05.1.08.16v0A1.41,1.41,0,0,1,271.17,332.88Z" transform="translate(-3.91 -2.27)" style="fill:#e0e0e0"/><path d="M139.06,356.19a12.1,12.1,0,0,1-3.25,4.5,1.12,1.12,0,0,1-.47.3c-.28.05-.37-.18-.41-.5a6.35,6.35,0,0,1,.1-1.57c.12-1,.27-2.07.44-3.1.28-1.66.59-3.31.91-5,.3-.7.58-1.41.84-2.12a54.18,54.18,0,0,0,1.93-6.36,16.48,16.48,0,0,0,.59-6.62c0-.21-.31-.38-.42-.14a31.8,31.8,0,0,0-1.68,6.67L136.05,350c0,.17-.07.34-.11.51q-.75,1.83-1.65,3.57c-.35.68-.71,1.35-1.09,2a12.63,12.63,0,0,1-1.14,1.82c-.58.7-1.34.48-1.69-.41a2.83,2.83,0,0,1-.15-.59,7,7,0,0,0,1.34-1.87,16.91,16.91,0,0,0,1.09-2.42,18.34,18.34,0,0,0,.7-2.74c.1-.62.33-1.56,0-2.07s-.9-.05-1.18.43a17.82,17.82,0,0,0-1.18,2.5,15.49,15.49,0,0,0-1.18,5.62v.22a1.24,1.24,0,0,1-.18.14,1.06,1.06,0,0,1-1.49-.11,1.07,1.07,0,0,1-.25-.77c0-.3-.35-.42-.47-.16a29.58,29.58,0,0,1-.94,2.89c-.22.37-.64.84-1,.57a.82.82,0,0,1-.3-.67c0-.13.1-.26.14-.4s-.29-.49-.42-.29a1.06,1.06,0,0,0-.21.59c-.23.67-.48,1.34-.76,2a6.6,6.6,0,0,1,0-2.08c0-.27-.41-.45-.47-.16a19.41,19.41,0,0,1-.75,2.71q-.24.68-.54,1.32a5,5,0,0,1-.76,1.39c-.15.15-.37.29-.56.18s-.22-.58-.23-.88c0-.49,0-1,0-1.52a17.62,17.62,0,0,1,.46-2.88c.08-.33-.38-.54-.48-.21a34.82,34.82,0,0,1-1.63,4.41c-.31.69-.64,1.37-1,2-.17.3-.61,1-1,1,.08-.14.14-.27.22-.4a34.71,34.71,0,0,0,2.1-4.8,21.14,21.14,0,0,0,1.17-5.15,1.43,1.43,0,0,0-.42-1.3,8.16,8.16,0,0,0,.06-2.7,2,2,0,0,0-2.62-1.8c-1.38.43-2.47,1.82-3.43,3.13a33.08,33.08,0,0,0-4.47,8.58,36.24,36.24,0,0,0-1.34,4.9c-.32,1.58-.76,3.49-.22,5,1.29,3.7,4.88.29,6.32-1.52a23.63,23.63,0,0,0,2.27-3.51,1.06,1.06,0,0,0,1.15-.38,7.86,7.86,0,0,0,1.16-1.95c.4-.84.75-1.69,1.1-2.57v1a3.57,3.57,0,0,0,.19,1.62.83.83,0,0,0,.81.44c.81-.07,1.29-1.37,1.65-2.18a16.31,16.31,0,0,0,.7-1.92,5.82,5.82,0,0,0,.24,1,.23.23,0,0,0,.26.18.25.25,0,0,0,.16-.12c.31-.66.59-1.34.84-2a1.11,1.11,0,0,0,1.05.53c1.11-.28,1.31-1.86,1.66-3.1a1.73,1.73,0,0,0,.66.68,1.53,1.53,0,0,0,1.61-.11,2.56,2.56,0,0,0,.7,1.29,1.15,1.15,0,0,0,1.59.1,8.12,8.12,0,0,0,1.47-2.15q.7-1.23,1.35-2.52l.49-1c-.28,1.4-.54,2.81-.76,4.22-.09.6-.18,1.2-.24,1.81a6.36,6.36,0,0,0-.09,1.51c.09.83.62,1.3,1.25,1a3.71,3.71,0,0,0,1.06-.83,10.29,10.29,0,0,0,1.12-1.26,14.22,14.22,0,0,0,1.73-3C139.67,356.1,139.19,355.88,139.06,356.19ZM138,342.84c.26-1.25.5-2.5.76-3.74a19.54,19.54,0,0,1,.63-2.39,15.22,15.22,0,0,1-.42,4c-.33,1.52-.76,3.08-1.17,4.55-.26.84-.53,1.67-.82,2.48.34-1.63.69-3.29,1-4.94Zm-22.85,24.68a15.78,15.78,0,0,1-2.74,3.3,8.22,8.22,0,0,1-1.58,1.09c-.54.28-1.14.5-1.65,0-1-.87-.88-2.67-.68-4a37,37,0,0,1,.9-4.15,35.22,35.22,0,0,1,3.1-7.67,30.74,30.74,0,0,1,2.2-3.43c.86-1.15,1.88-2.43,3.15-2.68,1.8-.37,1.92,1.76,1.56,3.89a2.43,2.43,0,0,0-1.42.9,10.66,10.66,0,0,0-1.94,4.47,13.92,13.92,0,0,0-.27,1.57,3,3,0,0,1-1.51.52c-.8,0-.69-1.33-.6-2a8.9,8.9,0,0,1,.57-2.27c.08-.18-.23-.45-.31-.26a9.8,9.8,0,0,0-.71,2.54,3.12,3.12,0,0,0,.27,2.16,1.37,1.37,0,0,0,1.6.26,3.61,3.61,0,0,0,.62-.24,11.49,11.49,0,0,0,.11,2.81,4.56,4.56,0,0,0,.4,1.41c-.33.61-.7,1.21-1.07,1.8Zm4.14-13a16.5,16.5,0,0,1-.83,2.84,8.05,8.05,0,0,1-2.06,3,14.41,14.41,0,0,1,1-3.35,6.57,6.57,0,0,1,1.07-1.85,2.19,2.19,0,0,1,.76-.62Zm-2.76,10.61c-.06-.22-.1-.48-.13-.65a8.52,8.52,0,0,1-.15-1.13,11.45,11.45,0,0,1,0-2.19h0a7.23,7.23,0,0,0,.69-.55,9.59,9.59,0,0,0,2.42-4.24,16.61,16.61,0,0,0,.44-1.66v.16a2.44,2.44,0,0,1,0,.54,22.42,22.42,0,0,1-1,4.35,31.9,31.9,0,0,1-2.3,5.38Zm13.78-10.46a17.86,17.86,0,0,1,1.29-4.41,8.7,8.7,0,0,1,1-2s.25-.29.32-.23.05.24.05.28a2.53,2.53,0,0,1,0,.55q-.08.62-.21,1.23a15.53,15.53,0,0,1-1.68,4.62,7.89,7.89,0,0,1-.93,1.42A9.23,9.23,0,0,1,130.32,354.67Zm24.41-7.31-.24-.05c.06-1.18.07-2.37,0-3.54,0-2.27-.18-4.47-.43-6.69a4.14,4.14,0,0,0-.1-.68c.12-.68.22-1.36.29-2,.14-1.34.23-3-.75-3.83a.22.22,0,0,0-.37.14,16.06,16.06,0,0,0,.24,4.64,4.52,4.52,0,0,0,.1.75c-.18,1.1-.41,2.18-.69,3.25a33.25,33.25,0,0,1-1.31,4c-.26.66-.54,1.3-.84,1.93a3.47,3.47,0,0,1-1.32,1.68,1.77,1.77,0,0,1-.16-.85c0-.28-.36-.47-.43-.15a1.87,1.87,0,0,1-.07.22c.07-.76.15-1.52.26-2.27,0-.25-.36-.46-.43-.2a14.47,14.47,0,0,1-.86,2.5,11,11,0,0,1-.65,1.22c-.14.23-.44.76-.69.7-.56-.08-.14-2.28,0-2.73a1.4,1.4,0,0,1,.11-.4,17.78,17.78,0,0,0,.76-2c.1-.27-.28-.52-.4-.27a13.74,13.74,0,0,0-.56,1.38,30.24,30.24,0,0,1-2.37,4.55c-.55.86-1.28,2.2-2.19,2.35-.54.07-.71-.4-.72-1a17.45,17.45,0,0,0,2.4-3.34c.5-.9,2.91-5.83.68-5.62-1,.09-1.58,1.36-2,2.37a20.29,20.29,0,0,0-1.21,3.88,17.63,17.63,0,0,0-.31,1.93,2.81,2.81,0,0,0,0,.58,15.21,15.21,0,0,1-2.31,2c-.19.12.09.47.25.37a15.24,15.24,0,0,0,2.11-1.74,1.66,1.66,0,0,0,.16.49c.54,1,1.65.52,2.27-.12a17.29,17.29,0,0,0,2.38-3.6c.13-.24.26-.49.38-.76-.11.76-.15,1.79.39,2.08s1.21-.62,1.52-1.21a11.62,11.62,0,0,0,.62-1.28c0,.26,0,.53,0,.75s.19.4.34.31a1.77,1.77,0,0,0,.33-.34,2.15,2.15,0,0,0,.24.56.27.27,0,0,0,.27.12c1.28-.37,2-2.32,2.54-3.7a35.06,35.06,0,0,0,1.52-4.54c.1-.44.21-.88.3-1.32.09.95.17,1.9.21,2.85a58,58,0,0,1,.06,6.46,5,5,0,0,0-3,1,13,13,0,0,0-3.29,2.94,6.07,6.07,0,0,0-1.28,4.08,3.08,3.08,0,0,0,1.84,2.93c2.27.7,4.21-2.27,5.08-4.66a20.74,20.74,0,0,0,1.08-5.74,1,1,0,0,1,.25,0c.28.23.28-.26,0-.33Zm-13.52.52a21.13,21.13,0,0,1,.84-3.12,7.21,7.21,0,0,1,1.52-2.88c.14-.14.53-.43.7-.32s.24.56.19.9a8.64,8.64,0,0,1-.44,1.66,17.07,17.07,0,0,1-1.41,2.88,16.36,16.36,0,0,1-1.61,2.27,13.18,13.18,0,0,1,.21-1.37Zm12.53-13.34a13.75,13.75,0,0,1-.15-3.27,6,6,0,0,1,.15,3.29Zm-.13,16c-.48,2.64-1.56,5.66-3.59,6.82a1.76,1.76,0,0,1-2.46-.4,1.86,1.86,0,0,1-.23-.41,5,5,0,0,1,.3-4.07,10.17,10.17,0,0,1,3.25-3.37A5.76,5.76,0,0,1,154,347.8a25.91,25.91,0,0,1-.34,2.79Z" transform="translate(-3.91 -2.27)" style="fill:#455a64"/><path d="M137.42,178.79a3,3,0,0,1,.52,1.87,5.92,5.92,0,0,1-.28,1.76,8,8,0,0,1-.79,1.81,7.88,7.88,0,0,1-1.23,1.61,6.23,6.23,0,0,1-.75.68,13.44,13.44,0,0,1-1.31.82l-2.3,1.33,0-8.33,2.45-1.42a5.1,5.1,0,0,1,2.34-.84A1.65,1.65,0,0,1,137.42,178.79Zm-1.32,5.14a5.38,5.38,0,0,0,.77-2.72c0-.89-.27-1.47-.8-1.73a1.32,1.32,0,0,0-.67-.13,2.09,2.09,0,0,0-.71.14,8.82,8.82,0,0,0-1.09.56l-1.3.75,0,6.21,1.33-.77a8.87,8.87,0,0,0,1.21-.82,5.46,5.46,0,0,0,.72-.73,6,6,0,0,0,.52-.76" transform="translate(-3.91 -2.27)" style="fill:#de007b"/><polygon points="139.44 171.09 139.44 172.16 136.36 173.93 136.37 176.48 139.34 174.76 139.35 175.82 136.37 177.54 136.38 180.14 139.56 178.3 139.56 179.36 135.35 181.79 135.32 173.47 139.44 171.09" style="fill:#de007b"/><polygon points="141.68 169.79 141.7 177.05 144.97 175.16 144.98 176.25 140.67 178.74 140.64 170.4 141.68 169.79" style="fill:#de007b"/><polygon points="146.91 166.78 146.93 175.12 145.9 175.72 145.87 167.38 146.91 166.78" style="fill:#de007b"/><path d="M156.94,170.2a1.25,1.25,0,0,1,.47,1.11,3.37,3.37,0,0,1-.28,1.32,5.12,5.12,0,0,1-.84,1.3,5.51,5.51,0,0,1-1.38,1.11l-2.46,1.42,0-8.34,1.9-1.1a3.24,3.24,0,0,1,1.4-.53.9.9,0,0,1,.77.32,1.51,1.51,0,0,1,.27,1,3.52,3.52,0,0,1-1.1,2.4A1.42,1.42,0,0,1,156.94,170.2Zm-.79,2.43a1.91,1.91,0,0,0,.18-.8.84.84,0,0,0-.19-.59.64.64,0,0,0-.56-.15,4.23,4.23,0,0,0-1.13.5l-1,.56v2.65l1-.6a6,6,0,0,0,1.16-.81,2.72,2.72,0,0,0,.48-.76m-2.68-4v2.51l.7-.4a3.33,3.33,0,0,0,1.18-1.05,2.17,2.17,0,0,0,.35-1.14c0-.8-.45-.95-1.34-.43l-.89.51" transform="translate(-3.91 -2.27)" style="fill:#de007b"/><polygon points="158.63 160.01 158.63 161.07 155.55 162.85 155.56 165.4 158.53 163.68 158.53 164.75 155.56 166.46 155.57 169.06 158.74 167.23 158.75 168.28 154.53 170.72 154.51 162.39 158.63 160.01" style="fill:#de007b"/><path d="M173.21,156.07l3.28,6.51-1.06.61-1-1.91-3.09,1.79-.9,3-1.07.62,3.09-10.19Zm-1.44,5.69,2.25-1.3-1.18-2.34-1.07,3.64" transform="translate(-3.91 -2.27)" style="fill:#de007b"/><path d="M169,166.31l.39.37-1.24.71-.32-.36-.06-.07-.2-.21-.32-.42-.36-.45a2.67,2.67,0,0,0-.59-.49,1.31,1.31,0,0,0-.48-.15,1.53,1.53,0,0,0-.73.28l-.27.16v3.63l-1,.6,0-8.34,1.82-1a2.08,2.08,0,0,1,1.75-.38c.43.17.65.61.65,1.32a3.52,3.52,0,0,1-.31,1.44,4.46,4.46,0,0,1-.91,1.32,1.56,1.56,0,0,1,.68.32,6.88,6.88,0,0,1,.94,1.05C168.65,165.92,168.85,166.15,169,166.31Zm-2.7-2.71a2.36,2.36,0,0,0,.45-.73,1.88,1.88,0,0,0,.16-.8.91.91,0,0,0-.18-.61.51.51,0,0,0-.51-.16,4.45,4.45,0,0,0-1.1.51l-.31.18v2.62l.39-.22a4.87,4.87,0,0,0,1.09-.79" transform="translate(-3.91 -2.27)" style="fill:#de007b"/><polygon points="177.74 148.97 177.74 150.03 175.21 151.49 175.23 158.78 174.19 159.38 174.16 152.09 171.68 153.53 171.67 152.47 177.74 148.97" style="fill:#de007b"/><polygon points="179.77 147.81 179.79 156.15 178.75 156.75 178.73 148.41 179.77 147.81" style="fill:#de007b"/><path d="M191.65,146.58a2.47,2.47,0,0,1,1.13,2.42,7.06,7.06,0,0,1-1.12,3.7,7.89,7.89,0,0,1-2.85,2.86,2.79,2.79,0,0,1-2.73.37,2.46,2.46,0,0,1-1.1-2.4,7.12,7.12,0,0,1,1.09-3.73,7.71,7.71,0,0,1,2.78-2.83A2.89,2.89,0,0,1,191.65,146.58Zm-.75,5.76a5.37,5.37,0,0,0,.81-2.74,1.82,1.82,0,0,0-.82-1.76,2,2,0,0,0-2,.24,5.66,5.66,0,0,0-2,2.08,5.31,5.31,0,0,0-.8,2.75,1.83,1.83,0,0,0,.81,1.78,2,2,0,0,0,2-.27,5.61,5.61,0,0,0,2-2.08" transform="translate(-3.91 -2.27)" style="fill:#de007b"/><polygon points="196.89 137.92 196.91 146.26 196.02 146.78 191.15 143.16 191.17 149.58 190.19 150.14 190.17 141.8 191.01 141.31 195.93 144.97 195.91 138.49 196.89 137.92" style="fill:#de007b"/><path d="M246.42,305m.34-.31c.08-.17.45-.42.38-.46a.25.25,0,0,0-.18,0c-.12,0-.29.12-.38.13-.61.14-1.21.29-1.82.46s-1.2.36-1.8.57c-1.1.41-2,.73-2.85,1.08s-1.74.72-2.81,1.21c-2.28,1.05-4.52,2.21-6.73,3.44-3.33,1.85-6.6,3.86-9.85,5.93-1.5,1-3,1.95-4.5,2.91-1,.64-2,1.26-3,1.85a14.52,14.52,0,0,1-2,1.09,2.92,2.92,0,0,1-1.36.26l-.13,0,.15-.27a17.49,17.49,0,0,1,1.19-1.71c1.45-1.91,3.54-4.33,3.83-4.66.65-.74,1.3-1.48,2-2.21a6.21,6.21,0,0,0,.75.34,2.31,2.31,0,0,0,1.2.15c.13,0,.19-.12.2-.26a5.88,5.88,0,0,0-.1-.68c0-.56-.07-1.13-.1-1.69.78-.85,1.56-1.68,2.35-2.51q3.18-3.34,6.46-6.52c.95-.92,2.37-2,3.53-3.29a7.46,7.46,0,0,0,1.76-3,.36.36,0,0,0,0-.18.2.2,0,0,0-.16-.13,1.76,1.76,0,0,0-.53.15,9.48,9.48,0,0,0-1.31.54c-.42.21-.83.44-1.26.69-.58.34-1.42.89-2.25,1.45s-1.69,1.15-2.22,1.53c-1.8,1.31-3.58,2.67-5.35,4.06l-1.53,1.21c-.2-1.88-.49-4.06-.9-6.07a14.68,14.68,0,0,0-2-5.6c-.05-.06-.1-.07-.13-.06s-.11.06-.13.17,0,.4,0,.53c0,.31-.06.62-.08.93s0,.63-.05.94c0,.59,0,1.2,0,1.8,0,.9.06,1.8.1,2.69q.08,1.91.12,3.81c0,1.11.06,2.22.08,3.33l-3.31,2.65-2.44,1.95a5.89,5.89,0,0,0-2.61,2.1.22.22,0,0,0,0,.13c0,.06,0,.23.19.14s.17-.15.22-.19l1.3-1.06,1-.79a7.57,7.57,0,0,1,5.52-.18l.28.12c0,.24,0,.47,0,.71a.09.09,0,0,0,.08.1.1.1,0,0,0,.07-.11c0-.2,0-.41,0-.62.33.17.68.38,1,.58l-1.84,2.07c-.29.33-2.4,2.76-3.86,4.67a15.69,15.69,0,0,0-1.22,1.76,1.28,1.28,0,0,0-.22.67.26.26,0,0,0,.14.22,1,1,0,0,0,.31.06,3.27,3.27,0,0,0,1.46-.3,17.48,17.48,0,0,0,2-1.11c1-.6,2-1.23,3-1.88,1.51-1,3-2,4.5-2.92,2.7-1.72,5.42-3.41,8.18-5s5.54-3,8.38-4.33c1.07-.49,1.93-.86,2.81-1.21s1.74-.66,2.84-1.06c.47-.17,1-.32,1.43-.46q1.07-.31,2.16-.57a1.53,1.53,0,0,0,.21-.13m-28.29,7.82L217.1,314a4.92,4.92,0,0,0,.58.26,2.17,2.17,0,0,0,1,.15,4.37,4.37,0,0,1-.09-.56Zm-.45-5.78-2.65,2.14c0,1.45,0,2.9.05,4.35.41.21.84.47,1.28.71l1.74-1.9,0-.39c-.05-.77-.1-1.54-.17-2.3S218.2,307.66,218.1,306.66Zm-2.85,2.3-3.19,2.57-1.69,1.35.42-.12a7.45,7.45,0,0,1,4.37.24l.18.08C215.3,311.7,215.27,310.33,215.25,309Zm17.41-12.13-.39.11a10.21,10.21,0,0,0-1.28.54c-.41.2-.82.43-1.25.68s-1.41.88-2.24,1.44-1.68,1.15-2.21,1.53c-1.8,1.31-3.57,2.67-5.34,4.06l-1.61,1.28c.11,1.06.19,2,.26,2.76s.12,1.54.17,2.31v.15c.73-.79.81-.55,1.55-1.33,2.13-2.22,4.94-5.4,7.14-7.52.94-.9,2.37-1.95,3.53-3.23A7.24,7.24,0,0,0,232.66,296.83Zm-17.33-2c0,.11,0,.24,0,.3,0,.31-.06.61-.08.92s0,.61,0,.92c0,.59,0,1.19,0,1.78,0,.9.06,1.8.1,2.68.06,1.28.1,2.55.12,3.82,0,1.06,0,2.11,0,3.17l2.61-2.1c-.2-1.9-.48-4.14-.9-6.18A15.36,15.36,0,0,0,215.33,294.84Z" transform="translate(-3.91 -2.27)" style="fill:#455a64;stroke:#455a64;stroke-miterlimit:10;stroke-width:0.25px;fill-rule:evenodd"/><path d="M221.16,304.27l.33,0a26.73,26.73,0,0,1,7.81,3,13.77,13.77,0,0,1,3.85,2.94,2.31,2.31,0,0,1,.68,1.79c-.23,1.18-1.79,2.37-3.83,3.5-1.39.77-3,1.5-4.59,2.18-3,1.27-5.83,2.33-7.07,2.95a.18.18,0,0,0-.08.23.17.17,0,0,0,.23.07c1.24-.61,4.12-1.63,7.07-2.89a48.18,48.18,0,0,0,4.61-2.23c2.15-1.21,3.75-2.51,4-3.75a2.61,2.61,0,0,0-.74-2.06,14.35,14.35,0,0,0-3.95-3,27,27,0,0,0-7.92-3,2.88,2.88,0,0,0-2.2.23,1.57,1.57,0,0,0-.39,1.41,8.46,8.46,0,0,0,1.24,3,18.15,18.15,0,0,0,4,4.72.45.45,0,0,0,.38.1c.12,0,.24-.21.1-.58s-.31-.83-.48-1.25c-.39-1-.8-1.9-1.19-2.86-.72-1.79-.88-2.23-1.33-3.31Zm-.23,0a1.88,1.88,0,0,0-1.35.22,1.23,1.23,0,0,0-.28,1.11,8.13,8.13,0,0,0,1.2,2.84,21.88,21.88,0,0,0,3.33,4.22,3.32,3.32,0,0,0,.49.4l.07,0a.65.65,0,0,0,0-.13c-.14-.42-.3-.83-.46-1.24-.38-1-.79-1.92-1.16-2.88Z" transform="translate(-3.91 -2.27)" style="fill:#455a64;stroke:#455a64;stroke-miterlimit:10;stroke-width:0.25px;fill-rule:evenodd"/><path d="M195.05,288.73c1-.57,1.78-.11,1.79,1a3.9,3.9,0,0,1-1.77,3.05L155.9,315.42c-1,.56-1.78.11-1.78-1a3.88,3.88,0,0,1,1.76-3.06Z" transform="translate(-3.91 -2.27)" style="fill:#efefef"/><path d="M123.12,190.33c.58-.33,1-.07,1,.6a2.3,2.3,0,0,1-1,1.81l-32,18.48c-.58.33-1.05.07-1.06-.6a2.31,2.31,0,0,1,1-1.81l1.66-.95-.06-19.1-1.65,1c-.58.34-1,.07-1.06-.59a2.33,2.33,0,0,1,1-1.82L98.56,183c0-5,3.23-11,7.42-14l0-7.11a2.32,2.32,0,0,1,1-1.82l6.3-3.64c.59-.33,1-.06,1,.61l0,4.3a2.31,2.31,0,0,1-1.05,1.81l-2.57,1.48c-.58.34-1,.07-1.06-.59a2.33,2.33,0,0,1,1-1.82l1.52-.87v-1.9l-4.2,2.43,0,5.92c4.19-1.83,7.46.4,7.48,5.37l7.5-4.33c.58-.33,1-.06,1,.61a2.28,2.28,0,0,1-1,1.8L94.81,187.55l0,19.1,6.25-3.61,0-11.3a2.3,2.3,0,0,1,1-1.81l9.9-5.72c.58-.33,1-.07,1,.6l0,11.3,6.25-3.61,0-14.48a2.26,2.26,0,0,1,1-1.8c.58-.34,1-.08,1.06.59l0,14.48ZM107,170.72a14.11,14.11,0,0,0-6.38,11l12.81-7.4c0-4-2.92-5.6-6.43-3.57m4,26.6,0-10.09-2.85,1.64,0,5.79a2.33,2.33,0,0,1-1,1.82c-.59.33-1,.06-1-.61l0-5.79-2.86,1.65,0,10.09,7.81-4.5" transform="translate(-3.91 -2.27)" style="fill:#de007b;opacity:0.200000002980232"/></svg>