<?xml version="1.0" encoding="utf-8"?>
<!-- Generator: Adobe Illustrator 25.0.0, SVG Export Plug-In . SVG Version: 6.00 Build 0)  -->
<svg version="1.1" id="Calque_1" xmlns="http://www.w3.org/2000/svg" xmlns:xlink="http://www.w3.org/1999/xlink" x="0px" y="0px"
	 viewBox="0 0 500 500" style="enable-background:new 0 0 500 500;" xml:space="preserve">
<style type="text/css">
	.st0{fill:#EBEBEB;}
	.st1{fill:#C84080;}
	.st2{opacity:0.3;enable-background:new    ;}
	.st3{opacity:0.3;fill:#FFFFFF;enable-background:new    ;}
	.st4{fill:#F0F0F0;}
	.st5{fill:#FAFAFA;}
	.st6{fill:#E0E0E0;}
	.st7{opacity:0.15;enable-background:new    ;}
	.st8{opacity:0.4;fill:#DE007B;}
	.st9{opacity:0.2;fill:#DE007B;enable-background:new    ;}
	.st10{fill:#455A64;}
	.st11{fill:#DE007B;}
	.st12{fill-rule:evenodd;clip-rule:evenodd;fill:#455A64;stroke:#455A64;stroke-width:0.25;stroke-miterlimit:10;}
	.st13{fill:#EFEFEF;}
	.st14{opacity:0.2;fill:#DE007B;}
</style>
<g id="freepik--Shadows--inject-486">
	<path id="freepik--shadow--inject-486" class="st0" d="M128.2,475.2l-74.4-43c-2.2-1.3-2.2-3.3,0-4.6l186.8-107.8
		c2.5-1.3,5.5-1.3,8,0l74.4,43c2.2,1.3,2.2,3.3,0,4.6L136.2,475.2C133.7,476.5,130.7,476.5,128.2,475.2z"/>
	<path id="freepik--shadow--inject-486_1_" class="st0" d="M225.7,319.8L27.8,425.5c-2.3,1.3-2.3,3.4,0,4.7l15.1,8.7
		c2.6,1.3,5.6,1.3,8.2,0L249,333.2c2.3-1.3,2.3-3.4,0-4.7l-15.1-8.7C231.3,318.5,228.3,318.5,225.7,319.8z"/>
</g>
<g id="freepik--Folder--inject-486">
	<g id="freepik--folder--inject-486">
		<path class="st1" d="M37.6,428.6c0.1-1.1,0.7-2,1.7-2.5l168.9-106.2V164.5l20.9-25.9c3.6-4.9,5.7-10.7,6-16.8V34.2
			c0-5.2-3.6-7.2-8-4.5L39.3,146.5c-1,0.5-1.6,1.4-1.7,2.5L37.6,428.6z"/>
		<path class="st2" d="M223.6,57.5c0-5.2-3.7-7.4-8.3-4.9l-172,95.2c-1.7,0.9-3.7,1.2-5.6,0.8c0,0.1,0,0.2,0,0.3v279.4l0,0
			c0.2-1,0.8-1.8,1.7-2.2l168.9-106.2V164.5l15.4-19L223.6,57.5z"/>
		<path class="st1" d="M39.1,430.9c2.5,1.2,5.5,1.2,8-0.1l172-95.2c4.6-2.5,8.3-8.8,8.3-14V60.8c0-5.2-3.7-7.4-8.3-4.9l-172,95.2
			c-2.5,1.3-5.5,1.3-8,0.1c-0.9-0.4-1.5-1.2-1.5-2.2v279.6C37.6,429.6,38.2,430.5,39.1,430.9z"/>
		<path class="st3" d="M39.1,430.9c2.5,1.2,5.5,1.2,8-0.1l172-95.2c4.6-2.5,8.3-8.8,8.3-14V60.8c0-5.2-3.7-7.4-8.3-4.9l-172,95.2
			c-2.5,1.3-5.5,1.3-8,0.1c-0.9-0.4-1.5-1.2-1.5-2.2v279.6C37.6,429.6,38.2,430.5,39.1,430.9z"/>
		<path class="st3" d="M43,152.1c-1.3,0-2.7-0.3-3.8-0.9c-0.9-0.4-1.5-1.2-1.6-2.2v279.6c0.1,1,0.7,1.8,1.5,2.2
			c1.2,0.6,2.5,0.9,3.8,0.9L43,152.1z"/>
		<path class="st1" d="M66,148.9c-0.3,0-0.5,0.2-0.5,0.5c0,0,0,0,0,0v261.8c0,0.3,0.2,0.5,0.5,0.5s0.5-0.2,0.5-0.5V149.4
			C66.5,149.1,66.3,148.9,66,148.9C66,148.9,66,148.9,66,148.9z M50.6,157.8c-0.3,0-0.5,0.2-0.5,0.5l0,0v261.8
			c0,0.3,0.2,0.5,0.5,0.5c0.3,0,0.5-0.2,0.5-0.5c0,0,0,0,0,0V158.2C51.1,158,50.9,157.8,50.6,157.8L50.6,157.8z M58.3,153.3
			c-0.3,0-0.5,0.2-0.5,0.5v261.8c0,0.3,0.2,0.5,0.5,0.5c0.3,0,0.5-0.2,0.5-0.5l0,0V153.8C58.8,153.6,58.6,153.4,58.3,153.3
			L58.3,153.3z"/>
	</g>
</g>
<g id="freepik--Contract--inject-486">
	<g id="freepik--Sheet--inject-486">
		<polygon class="st4" points="81.9,163.9 78,161.7 255.5,59.2 259.5,61.4 		"/>
		<polygon class="st5" points="259.5,61.4 259.5,334.1 81.9,436.6 81.9,163.9 		"/>
		<path class="st0" d="M258.5,63.1v270.5L82.8,435l0.1-270.5L258.5,63.1 M259.5,61.4L81.9,163.9l-0.1,272.7l177.6-102.5L259.5,61.4
			L259.5,61.4z"/>
		<polygon class="st6" points="81.9,163.9 81.9,436.6 78,434.4 78,161.7 81.9,163.9 		"/>
	</g>
	<g id="freepik--contract--inject-486">
		<g id="freepik--sheet--inject-486">
			<path class="st4" d="M309.2,358.4v4.6L131.6,465.5l-2-1.1c-24.4-14.1-39.4-40.2-39.4-68.4V184.4L267.7,81.9l4,2.3v209.3
				C271.7,320.3,286,345,309.2,358.4z"/>
			<path class="st6" d="M271.7,293.5V84.2L94.2,186.7V396c0,26.8,14.3,51.5,37.5,64.9l177.5-102.5C286,345,271.7,320.3,271.7,293.5z
				 M95,396V187.2L270.8,85.7v207.8c0,26.6,13.9,51.2,36.6,64.9L131.6,459.9C109,446.6,95.1,422.3,95,396z"/>
			<path class="st5" d="M307.5,358.4L131.6,459.9C109,446.6,95.1,422.3,95,396V187.2L270.8,85.7v207.8
				C270.9,320,284.7,344.6,307.5,358.4z"/>
			<path class="st6" d="M94.2,396V186.7l-4-2.3V396c0,28.2,15.1,54.2,39.5,68.4l2,1.1v-4.6C108.4,447.5,94.1,422.8,94.2,396z"/>
			<polygon class="st7" points="131.6,460.9 131.6,465.5 309.2,363 309.2,358.4 			"/>
		</g>
		<g id="freepik--Text--inject-486">
			<path class="st6" d="M216.4,139.5l42.4-24.5c1-0.6,1.9-0.2,1.9,1c-0.1,1.3-0.8,2.5-1.9,3.1l-42.4,24.5c-1.1,0.6-1.9,0.2-1.9-1
				C214.6,141.3,215.3,140.1,216.4,139.5z"/>
			<path class="st6" d="M216.4,155.9l42.4-24.5c1-0.6,1.9-0.2,1.9,1c-0.1,1.3-0.8,2.5-1.9,3.1L216.4,160c-1.1,0.6-1.9,0.2-1.9-1
				C214.6,157.7,215.3,156.5,216.4,155.9z"/>
			<path class="st6" d="M232.2,138.5l26.5-15.3c1-0.6,1.9-0.2,1.9,1c-0.1,1.3-0.8,2.5-1.9,3.1l-26.5,15.3c-1,0.6-1.9,0.2-1.9-1
				C230.4,140.4,231.1,139.2,232.2,138.5z"/>
		</g>
		<g id="freepik--text--inject-486">
			<path class="st6" d="M115.1,246.4l138.5-79.9c1.1-0.6,1.9-0.2,1.9,1c-0.1,1.3-0.8,2.5-1.9,3.1l-138.5,80c-1,0.6-1.9,0.2-1.9-1
				C113.2,248.3,113.9,247.1,115.1,246.4z"/>
			<path class="st6" d="M115.1,254.6l138.5-80c1.1-0.6,1.9-0.2,1.9,1c-0.1,1.3-0.8,2.5-1.9,3.1l-138.5,80c-1,0.6-1.9,0.2-1.9-1
				C113.3,256.5,114,255.3,115.1,254.6z"/>
			<path class="st6" d="M115.1,262.9l138.5-80c1.1-0.6,1.9-0.2,1.9,1c-0.1,1.3-0.8,2.5-1.9,3.1l-138.5,80c-1,0.6-1.9,0.2-1.9-1
				C113.3,264.7,114,263.5,115.1,262.9z"/>
			<path class="st6" d="M115.1,271l138.5-80c1.1-0.6,1.9-0.2,1.9,1c-0.1,1.3-0.8,2.5-1.9,3.1l-138.5,80c-1,0.6-1.9,0.2-1.9-1
				C113.3,272.9,114,271.7,115.1,271z"/>
		</g>
		<g id="freepik--text--inject-486_1_">
			<path class="st6" d="M115.1,287.6l138.5-80c1.1-0.6,1.9-0.2,1.9,1c-0.1,1.3-0.8,2.5-1.9,3.1l-138.5,80c-1,0.6-1.9,0.2-1.9-1
				C113.3,289.4,114,288.3,115.1,287.6z"/>
			<path class="st6" d="M115.1,295.8l138.5-79.9c1.1-0.6,1.9-0.2,1.9,0.9c-0.1,1.3-0.8,2.5-1.9,3.1l-138.5,80c-1,0.6-1.9,0.2-1.9-1
				C113.3,297.7,114,296.5,115.1,295.8z"/>
			<path class="st6" d="M115.1,304l138.5-79.9c1.1-0.6,1.9-0.2,1.9,0.9c-0.1,1.3-0.8,2.5-1.9,3.1l-138.5,79.9c-1,0.6-1.9,0.2-1.9-1
				C113.3,305.8,114,304.7,115.1,304z"/>
			<path class="st6" d="M115.1,312.2l138.5-79.9c1.1-0.6,1.9-0.2,1.9,1c-0.1,1.3-0.8,2.5-1.9,3.1l-138.5,79.9c-1,0.6-1.9,0.2-1.9-1
				C113.3,314.1,114,312.9,115.1,312.2z"/>
		</g>
		<path class="st6" d="M116.7,336.9L255.2,257c1.1-0.6,1.9-0.2,1.9,1c-0.1,1.3-0.8,2.5-1.9,3.1l-138.5,80c-1,0.6-1.9,0.2-1.9-1
			C114.9,338.8,115.6,337.6,116.7,336.9z"/>
		<path class="st6" d="M116.7,345.2l138.5-80c1.1-0.6,1.9-0.2,1.9,1c-0.1,1.3-0.8,2.5-1.9,3.1l-138.5,79.9c-1,0.6-1.9,0.2-1.9-1
			C114.9,347,115.6,345.9,116.7,345.2z"/>
		<path class="st6" d="M116.7,353.3l74.2-42.9c1-0.6,1.9-0.2,1.9,1c-0.1,1.3-0.8,2.5-1.9,3.1l-74.2,42.9c-1,0.6-1.9,0.2-1.9-1
			C114.9,355.2,115.6,354,116.7,353.3z"/>
		<path class="st8" d="M166.8,295.4l49.3-28.5c1-0.6,1.9-0.2,1.9,1c-0.1,1.3-0.8,2.5-1.9,3.1l-49.3,28.5c-1,0.6-1.9,0.2-1.9-1
			C165,297.3,165.7,296.1,166.8,295.4z"/>
		<path class="st9" d="M204.2,341.8v-3.1c-6.8,4-12.4,14.6-12.4,23.7l2.3-1.3C194.1,353.7,198.7,345,204.2,341.8z M213.2,350.1
			c0-6.6-4-9.6-9-6.8c-4.9,2.9-9,10.5-9,17.1s4,9.6,9,6.8C209.2,364.4,213.2,356.7,213.2,350.1L213.2,350.1z M196.4,359.8
			c0-5.7,3.5-12.4,7.8-14.9c0.3-0.2,0.6-0.3,0.9-0.4l-8.6,16.5C196.5,360.6,196.4,360.2,196.4,359.8z M196.8,362.6l9.7-18.6
			c2.5-0.4,4.5,1.1,5.2,4l-9.7,18.5C199.5,367,197.5,365.5,196.8,362.6L196.8,362.6z M212,349.7c0,0.3,0,0.7,0,1.1
			c0,5.7-3.5,12.4-7.8,14.9c-0.3,0.2-0.5,0.3-0.8,0.4L212,349.7z M204.2,335.7c-8.1,4.7-14.7,17.3-14.7,28.1
			c0,10.8,6.6,15.8,14.7,11.1s14.7-17.3,14.7-28.2C219,335.9,212.3,331,204.2,335.7z M204.2,373.4c-7.5,4.3-13.6-0.3-13.6-10.3
			s6.1-21.6,13.6-25.9c7.5-4.3,13.6,0.3,13.6,10.3S211.7,369.1,204.2,373.4z M214.4,349.5c0,7.4-4.5,16.1-10.1,19.3v3.1
			c6.9-4,12.4-14.6,12.4-23.7L214.4,349.5z"/>
		<path class="st6" d="M293.3,359.1L256,380.7c-0.5,0.3-1.2,0.2-1.5-0.3c0-0.1-0.1-0.1-0.1-0.2v0c-0.3-0.6,0-1.4,0.6-1.7l37.4-21.7
			c0.5-0.3,1.1-0.1,1.4,0.4c0,0.1,0.1,0.1,0.1,0.2v0C294.2,358,293.9,358.7,293.3,359.1z"/>
		<path class="st10" d="M161.2,382.4c-0.7,1.7-1.8,3.3-3.2,4.5c-0.1,0.1-0.3,0.2-0.5,0.3c-0.3,0.1-0.4-0.2-0.4-0.5
			c0-0.5,0-1.1,0.1-1.6c0.1-1,0.3-2.1,0.4-3.1c0.3-1.7,0.6-3.3,0.9-5c0.3-0.7,0.6-1.4,0.8-2.1c0.8-2.1,1.4-4.2,1.9-6.4
			c0.5-2.1,1-4.4,0.6-6.6c0-0.2-0.3-0.4-0.4-0.1c-0.9,2-1.2,4.5-1.7,6.7l-1.6,7.7c0,0.2-0.1,0.3-0.1,0.5c-0.5,1.2-1.1,2.4-1.7,3.6
			c-0.3,0.7-0.7,1.3-1.1,2c-0.3,0.6-0.7,1.2-1.1,1.8c-0.6,0.7-1.3,0.5-1.7-0.4c-0.1-0.2-0.1-0.4-0.2-0.6c0.5-0.6,1-1.2,1.3-1.9
			c0.4-0.8,0.8-1.6,1.1-2.4c0.3-0.9,0.5-1.8,0.7-2.7c0.1-0.6,0.3-1.6,0-2.1c-0.4-0.5-0.9-0.1-1.2,0.4c-0.5,0.8-0.8,1.6-1.2,2.5
			c-0.7,1.8-1.1,3.7-1.2,5.6c0,0.1,0,0.1,0,0.2c-0.1,0-0.1,0.1-0.2,0.1c-0.4,0.4-1.1,0.3-1.5-0.1c-0.2-0.2-0.3-0.5-0.2-0.8
			c0-0.3-0.4-0.4-0.5-0.2c-0.4,0.9-0.4,2-0.9,2.9c-0.2,0.4-0.6,0.8-1,0.6c-0.2-0.2-0.3-0.4-0.3-0.7c0-0.1,0.1-0.3,0.1-0.4
			c0.1-0.3-0.3-0.5-0.4-0.3c-0.1,0.2-0.2,0.4-0.2,0.6c-0.2,0.7-0.5,1.3-0.8,2c-0.1-0.7-0.1-1.4,0-2.1c0-0.3-0.4-0.5-0.5-0.2
			c-0.2,0.9-0.4,1.8-0.8,2.7c-0.2,0.4-0.3,0.9-0.5,1.3c-0.2,0.5-0.4,1-0.8,1.4c-0.2,0.2-0.4,0.3-0.6,0.2s-0.2-0.6-0.2-0.9
			c0-0.5,0-1,0-1.5c0.1-1,0.2-1.9,0.5-2.9c0.1-0.3-0.4-0.5-0.5-0.2c-0.4,1.5-1,3-1.6,4.4c-0.3,0.7-0.6,1.4-1,2c-0.2,0.3-0.6,1-1,1
			c0.1-0.1,0.1-0.3,0.2-0.4c0.8-1.5,1.5-3.1,2.1-4.8c0.6-1.7,1-3.4,1.2-5.2c0.1-0.5-0.1-1-0.4-1.3c0.2-0.9,0.2-1.8,0.1-2.7
			c-0.3-1.6-1.5-2.2-2.6-1.8c-1.4,0.4-2.5,1.8-3.4,3.1c-1.9,2.6-3.4,5.5-4.5,8.6c-0.6,1.6-1,3.2-1.3,4.9c-0.3,1.6-0.8,3.5-0.2,5
			c1.3,3.7,4.9,0.3,6.3-1.5c0.9-1.1,1.6-2.3,2.3-3.5c0.4,0.1,0.9,0,1.1-0.4c0.5-0.6,0.9-1.2,1.2-2c0.4-0.8,0.8-1.7,1.1-2.6
			c0,0.3,0,0.7,0,1c-0.1,0.6,0,1.1,0.2,1.6c0.2,0.3,0.5,0.5,0.8,0.4c0.8-0.1,1.3-1.4,1.6-2.2c0.3-0.6,0.5-1.3,0.7-1.9
			c0.1,0.3,0.1,0.7,0.2,1c0,0.1,0.1,0.2,0.3,0.2c0.1,0,0.1-0.1,0.2-0.1c0.3-0.7,0.6-1.3,0.8-2c0.2,0.4,0.6,0.6,1,0.5
			c1.1-0.3,1.3-1.9,1.7-3.1c0.1,0.3,0.4,0.5,0.7,0.7c0.5,0.3,1.1,0.2,1.6-0.1c0.1,0.5,0.3,0.9,0.7,1.3c0.4,0.5,1.1,0.5,1.6,0.1
			c0.6-0.6,1.1-1.4,1.5-2.2c0.5-0.8,0.9-1.7,1.4-2.5l0.5-1c-0.3,1.4-0.5,2.8-0.8,4.2c-0.1,0.6-0.2,1.2-0.2,1.8
			c-0.1,0.5-0.1,1-0.1,1.5c0.1,0.8,0.6,1.3,1.2,1c0.4-0.2,0.8-0.5,1.1-0.8c0.4-0.4,0.8-0.8,1.1-1.3c0.7-0.9,1.3-2,1.7-3
			C161.8,382.3,161.4,382.1,161.2,382.4z M160.2,369.1c0.3-1.2,0.5-2.5,0.8-3.7c0.2-0.8,0.4-1.6,0.6-2.4c0,1.4-0.1,2.7-0.4,4
			c-0.3,1.5-0.8,3.1-1.2,4.5c-0.3,0.8-0.5,1.7-0.8,2.5C159.5,372.3,159.9,370.7,160.2,369.1L160.2,369.1z M137.3,393.7
			c-0.8,1.2-1.7,2.3-2.7,3.3c-0.5,0.4-1,0.8-1.6,1.1c-0.5,0.3-1.1,0.5-1.7,0c-1-0.9-0.9-2.7-0.7-4c0.2-1.4,0.5-2.8,0.9-4.2
			c0.7-2.7,1.8-5.2,3.1-7.7c0.7-1.2,1.4-2.3,2.2-3.4c0.9-1.2,1.9-2.4,3.2-2.7c1.8-0.4,1.9,1.8,1.6,3.9c-0.6,0.1-1.1,0.4-1.4,0.9
			c-1,1.3-1.6,2.8-1.9,4.5c-0.1,0.5-0.2,1-0.3,1.6c-0.5,0.3-1,0.5-1.5,0.5c-0.8,0-0.7-1.3-0.6-2c0.1-0.8,0.3-1.5,0.6-2.3
			c0.1-0.2-0.2-0.4-0.3-0.3c-0.3,0.8-0.6,1.7-0.7,2.5c-0.2,0.7-0.1,1.5,0.3,2.2c0.4,0.5,1.1,0.4,1.6,0.3c0.2-0.1,0.4-0.1,0.6-0.2
			c-0.1,0.9,0,1.9,0.1,2.8c0.1,0.5,0.2,1,0.4,1.4C138.1,392.5,137.7,393.1,137.3,393.7L137.3,393.7z M141.5,380.7
			c-0.2,1-0.5,1.9-0.8,2.8c-0.4,1.2-1.1,2.2-2.1,3c0.2-1.1,0.5-2.3,1-3.3c0.3-0.7,0.6-1.3,1.1-1.8c0.2-0.3,0.5-0.5,0.8-0.6
			L141.5,380.7z M138.7,391.3c-0.1-0.2-0.1-0.5-0.1-0.7c-0.1-0.4-0.1-0.7-0.1-1.1c-0.1-0.7-0.1-1.5,0-2.2l0,0
			c0.2-0.2,0.5-0.3,0.7-0.5c1.2-1.2,2-2.6,2.4-4.2c0.2-0.5,0.3-1.1,0.4-1.7c0,0,0,0.1,0,0.2c0,0.2,0,0.4,0,0.5
			c-0.2,1.5-0.5,2.9-1,4.3C140.4,387.8,139.6,389.6,138.7,391.3L138.7,391.3z M152.5,380.9c0.2-1.5,0.7-3,1.3-4.4
			c0.3-0.7,0.6-1.4,1-2c0-0.1,0.3-0.3,0.3-0.2c0.1,0.1,0,0.2,0,0.3c0,0.2,0,0.4,0,0.5c-0.1,0.4-0.1,0.8-0.2,1.2
			c-0.3,1.6-0.9,3.2-1.7,4.6c-0.3,0.5-0.6,1-0.9,1.4C152.4,381.9,152.4,381.4,152.5,380.9z M176.9,373.6l-0.2-0.1
			c0.1-1.2,0.1-2.4,0-3.5c0-2.3-0.2-4.5-0.4-6.7c0-0.2-0.1-0.5-0.1-0.7c0.1-0.7,0.2-1.4,0.3-2.1c0.1-1.3,0.2-3-0.8-3.8
			c-0.1-0.1-0.3-0.1-0.4,0.1c-0.1,1.5-0.1,3.1,0.2,4.6c0,0.3,0.1,0.5,0.1,0.8c-0.2,1.1-0.4,2.2-0.7,3.2c-0.4,1.4-0.8,2.7-1.3,4
			c-0.3,0.7-0.5,1.3-0.8,1.9c-0.3,0.7-0.7,1.3-1.3,1.7c-0.1-0.3-0.2-0.6-0.2-0.8c0-0.3-0.4-0.5-0.4-0.2c0,0.1,0,0.1-0.1,0.2
			c0.1-0.8,0.1-1.5,0.3-2.3c0-0.2-0.4-0.5-0.4-0.2c-0.2,0.9-0.5,1.7-0.9,2.5c-0.2,0.4-0.4,0.8-0.7,1.2c-0.1,0.2-0.4,0.8-0.7,0.7
			c-0.6-0.1-0.1-2.3,0-2.7c0-0.1,0.1-0.3,0.1-0.4c0.3-0.7,0.6-1.3,0.8-2c0.1-0.3-0.3-0.5-0.4-0.3c-0.2,0.4-0.4,0.9-0.6,1.4
			c-0.7,1.6-1.5,3.1-2.4,4.5c-0.6,0.9-1.3,2.2-2.2,2.3c-0.5,0.1-0.7-0.4-0.7-1c0.9-1,1.7-2.1,2.4-3.3c0.5-0.9,2.9-5.8,0.7-5.6
			c-1,0.1-1.6,1.4-2,2.4c-0.5,1.2-0.9,2.5-1.2,3.9c-0.1,0.6-0.2,1.3-0.3,1.9c0,0.2,0,0.4,0,0.6c-0.7,0.7-1.5,1.4-2.3,2
			c-0.2,0.1,0.1,0.5,0.2,0.4c0.8-0.5,1.5-1.1,2.1-1.7c0,0.2,0.1,0.3,0.2,0.5c0.5,1,1.7,0.5,2.3-0.1c0.9-1.1,1.7-2.3,2.4-3.6
			c0.1-0.2,0.3-0.5,0.4-0.8c-0.1,0.8-0.2,1.8,0.4,2.1c0.5,0.3,1.2-0.6,1.5-1.2c0.2-0.4,0.4-0.8,0.6-1.3c0,0.3,0,0.5,0,0.8
			c0,0.2,0.2,0.4,0.3,0.3c0.1-0.1,0.2-0.2,0.3-0.3c0.1,0.2,0.1,0.4,0.2,0.6c0.1,0.1,0.2,0.1,0.3,0.1c1.3-0.4,2-2.3,2.5-3.7
			c0.6-1.5,1.1-3,1.5-4.5c0.1-0.4,0.2-0.9,0.3-1.3c0.1,0.9,0.2,1.9,0.2,2.8c0.1,2.2,0.2,4.3,0.1,6.5c-1.1,0-2.1,0.4-3,1
			c-1.3,0.8-2.4,1.8-3.3,2.9c-0.9,1.2-1.4,2.6-1.3,4.1c0.1,1.4,0.8,2.6,1.8,2.9c2.3,0.7,4.2-2.3,5.1-4.7c0.6-1.9,1-3.8,1.1-5.7
			c0.1,0,0.2,0,0.2,0C177.2,374.2,177.2,373.7,176.9,373.6L176.9,373.6z M163.4,374.1c0.2-1.1,0.5-2.1,0.8-3.1
			c0.3-1.1,0.8-2,1.5-2.9c0.1-0.1,0.5-0.4,0.7-0.3s0.2,0.6,0.2,0.9c-0.1,0.6-0.2,1.1-0.4,1.7c-0.4,1-0.8,2-1.4,2.9
			c-0.5,0.8-1,1.6-1.6,2.3C163.2,374.9,163.3,374.4,163.4,374.1L163.4,374.1z M175.9,360.8c-0.2-1.1-0.2-2.2-0.2-3.3
			C176.2,358.3,176.1,359.7,175.9,360.8L175.9,360.8z M175.8,376.8c-0.5,2.6-1.6,5.7-3.6,6.8c-0.8,0.6-1.9,0.4-2.5-0.4
			c-0.1-0.1-0.2-0.3-0.2-0.4c-0.5-1.3-0.4-2.8,0.3-4.1c0.8-1.4,1.9-2.5,3.2-3.4c0.9-0.7,1.9-1.2,3.1-1.3
			C176.1,374.9,175.9,375.9,175.8,376.8L175.8,376.8z"/>
	</g>
</g>
<g>
	<g>
		<g>
			<path class="st11" d="M159.8,205.3c0.3,0.5,0.5,1.1,0.5,1.9c0,0.6-0.1,1.1-0.3,1.8c-0.2,0.6-0.5,1.2-0.8,1.8
				c-0.4,0.6-0.8,1.1-1.2,1.6c-0.3,0.3-0.5,0.5-0.8,0.7c-0.2,0.2-0.7,0.4-1.3,0.8l-2.3,1.3l0-8.3l2.5-1.4c1-0.6,1.8-0.9,2.3-0.8
				C159,204.6,159.5,204.8,159.8,205.3z M158.5,210.4c0.5-0.9,0.8-1.8,0.8-2.7c0-0.9-0.3-1.5-0.8-1.7c-0.2-0.1-0.4-0.1-0.7-0.1
				c-0.3,0-0.5,0.1-0.7,0.1c-0.2,0.1-0.6,0.3-1.1,0.6l-1.3,0.7l0,6.2l1.3-0.8c0.5-0.3,0.9-0.6,1.2-0.8c0.3-0.2,0.5-0.5,0.7-0.7
				C158.2,211,158.3,210.7,158.5,210.4"/>
		</g>
		<g>
			<polygon class="st11" points="165.7,199.9 165.7,200.9 162.7,202.7 162.7,205.3 165.6,203.5 165.6,204.6 162.7,206.3 
				162.7,208.9 165.9,207.1 165.9,208.1 161.7,210.6 161.6,202.3 			"/>
		</g>
		<g>
			<polygon class="st11" points="168,198.6 168,205.8 171.3,203.9 171.3,205 167,207.5 166.9,199.2 			"/>
		</g>
		<g>
			<polygon class="st11" points="173.2,195.6 173.2,203.9 172.2,204.5 172.2,196.2 			"/>
		</g>
		<g>
			<path class="st11" d="M179.3,196.7c0.3,0.2,0.5,0.6,0.5,1.1c0,0.4-0.1,0.9-0.3,1.3c-0.2,0.4-0.5,0.9-0.8,1.3
				c-0.4,0.4-0.8,0.8-1.4,1.1l-2.5,1.4l0-8.3l1.9-1.1c0.6-0.3,1.1-0.5,1.4-0.5c0.3,0,0.6,0.1,0.8,0.3c0.2,0.2,0.3,0.6,0.3,1
				c0,0.8-0.4,1.6-1.1,2.4C178.6,196.5,179,196.5,179.3,196.7z M178.5,199.1c0.1-0.3,0.2-0.6,0.2-0.8c0-0.2-0.1-0.4-0.2-0.6
				c-0.1-0.1-0.3-0.2-0.6-0.1c-0.2,0-0.6,0.2-1.1,0.5l-1,0.6l0,2.6l1-0.6c0.6-0.3,1-0.6,1.2-0.8
				C178.3,199.7,178.4,199.4,178.5,199.1 M175.9,195.1l0,2.5l0.7-0.4c0.6-0.3,0.9-0.7,1.2-1c0.2-0.4,0.3-0.8,0.3-1.1
				c0-0.8-0.5-0.9-1.3-0.4L175.9,195.1"/>
		</g>
		<g>
			<polygon class="st11" points="184.9,188.8 184.9,189.9 181.9,191.6 181.9,194.2 184.8,192.5 184.8,193.5 181.9,195.2 
				181.9,197.8 185,196 185.1,197.1 180.8,199.5 180.8,191.2 			"/>
		</g>
		<g>
			<path class="st11" d="M195.6,182.6l3.3,6.5l-1.1,0.6l-1-1.9l-3.1,1.8l-0.9,3l-1.1,0.6l3.1-10.2L195.6,182.6z M194.2,188.3
				l2.3-1.3l-1.2-2.3L194.2,188.3"/>
		</g>
		<g>
			<path class="st11" d="M191.4,192.8l0.4,0.4l-1.2,0.7l-0.3-0.4l-0.1-0.1l-0.2-0.2l-0.3-0.4l-0.4-0.5c-0.2-0.2-0.4-0.4-0.6-0.5
				c-0.2-0.1-0.3-0.1-0.5-0.2c-0.1,0-0.4,0.1-0.7,0.3l-0.3,0.2l0,3.6l-1,0.6l0-8.3l1.8-1.1c0.7-0.4,1.3-0.5,1.8-0.4
				c0.4,0.2,0.6,0.6,0.6,1.3c0,0.5-0.1,1-0.3,1.4c-0.2,0.5-0.5,0.9-0.9,1.3c0.2,0,0.5,0.1,0.7,0.3c0.2,0.2,0.5,0.5,0.9,1
				C191,192.4,191.2,192.7,191.4,192.8z M188.7,190.1c0.2-0.2,0.3-0.5,0.5-0.7c0.1-0.3,0.2-0.5,0.2-0.8c0-0.3-0.1-0.5-0.2-0.6
				c-0.1-0.1-0.3-0.2-0.5-0.2c-0.2,0-0.6,0.2-1.1,0.5l-0.3,0.2l0,2.6l0.4-0.2C188.1,190.6,188.5,190.3,188.7,190.1"/>
		</g>
		<g>
			<polygon class="st11" points="205.1,177.1 205.1,178.2 202.6,179.7 202.6,187 201.6,187.6 201.5,180.3 199,181.7 199,180.6 			
				"/>
		</g>
		<g>
			<polygon class="st11" points="207.1,176 207.2,184.3 206.1,184.9 206.1,176.6 			"/>
		</g>
		<g>
			<path class="st11" d="M215.1,172.5c0.7,0.4,1.1,1.2,1.1,2.4s-0.4,2.5-1.1,3.7c-0.8,1.2-1.7,2.2-2.8,2.9c-1.1,0.6-2,0.8-2.7,0.4
				c-0.7-0.4-1.1-1.2-1.1-2.4c0-1.2,0.4-2.5,1.1-3.7c0.7-1.2,1.7-2.2,2.8-2.8C213.4,172.2,214.4,172.1,215.1,172.5z M214.4,178.2
				c0.5-0.9,0.8-1.8,0.8-2.7c0-0.9-0.3-1.5-0.8-1.8c-0.5-0.3-1.2-0.2-2,0.3c-0.8,0.5-1.5,1.2-2,2.1c-0.5,0.9-0.8,1.8-0.8,2.7
				c0,0.9,0.3,1.5,0.8,1.8c0.5,0.3,1.2,0.2,2-0.3C213.1,179.9,213.8,179.2,214.4,178.2"/>
		</g>
		<g>
			<polygon class="st11" points="224.3,166.1 224.3,174.4 223.4,174.9 218.5,171.3 218.5,177.8 217.6,178.3 217.5,170 218.4,169.5 
				223.3,173.1 223.3,166.7 			"/>
		</g>
	</g>
</g>
<path class="st12" d="M268.6,331.2 M268.9,330.9c0.1-0.2,0.5-0.4,0.4-0.5c0,0-0.1,0-0.2,0c-0.1,0-0.3,0.1-0.4,0.1
	c-0.6,0.1-1.2,0.3-1.8,0.5c-0.6,0.2-1.2,0.4-1.8,0.6c-1.1,0.4-2,0.7-2.8,1.1c-0.9,0.4-1.7,0.7-2.8,1.2c-2.3,1-4.5,2.2-6.7,3.4
	c-3.3,1.8-6.6,3.9-9.8,5.9c-1.5,1-3,1.9-4.5,2.9c-1,0.6-2,1.3-3,1.9c-0.6,0.4-1.3,0.8-2,1.1c-0.4,0.2-0.9,0.3-1.4,0.3l-0.1,0
	c0-0.1,0.1-0.2,0.2-0.3c0.2-0.4,0.7-1,1.2-1.7c1.5-1.9,3.5-4.3,3.8-4.7c0.6-0.7,1.3-1.5,2-2.2c0.2,0.1,0.5,0.3,0.7,0.3
	c0.4,0.2,0.8,0.2,1.2,0.1c0.1,0,0.2-0.1,0.2-0.3c0-0.2-0.1-0.5-0.1-0.7c0-0.6-0.1-1.1-0.1-1.7c0.8-0.8,1.6-1.7,2.4-2.5
	c2.1-2.2,4.3-4.4,6.5-6.5c0.9-0.9,2.4-2,3.5-3.3c0.8-0.9,1.5-1.9,1.8-3c0-0.1,0-0.1,0-0.2c0-0.1-0.1-0.1-0.2-0.1
	c-0.1,0-0.4,0.1-0.5,0.1c-0.5,0.2-0.9,0.3-1.3,0.5c-0.4,0.2-0.8,0.4-1.3,0.7c-0.6,0.3-1.4,0.9-2.3,1.4c-0.8,0.6-1.7,1.2-2.2,1.5
	c-1.8,1.3-3.6,2.7-5.3,4.1c-0.5,0.4-1,0.8-1.5,1.2c-0.2-1.9-0.5-4.1-0.9-6.1c-0.5-2.4-1.1-4.5-2-5.6c-0.1-0.1-0.1-0.1-0.1-0.1
	c0,0-0.1,0.1-0.1,0.2c0,0.1,0,0.4,0,0.5c0,0.3-0.1,0.6-0.1,0.9c0,0.3,0,0.6-0.1,0.9c0,0.6,0,1.2,0,1.8c0,0.9,0.1,1.8,0.1,2.7
	c0.1,1.3,0.1,2.5,0.1,3.8c0,1.1,0.1,2.2,0.1,3.3c-1.1,0.9-2.2,1.8-3.3,2.7l-2.4,1.9c-1,0.5-2,1.1-2.6,2.1c0,0.1,0,0.1,0,0.1
	c0,0.1,0.1,0.2,0.2,0.1c0,0,0.2-0.1,0.2-0.2l1.3-1.1l1-0.8c0.4-0.2,0.8-0.3,1.3-0.4c1.5-0.3,3.1-0.2,4.2,0.2c0.1,0,0.2,0.1,0.3,0.1
	c0,0.2,0,0.5,0,0.7c0,0.1,0,0.1,0.1,0.1c0,0,0.1,0,0.1-0.1c0-0.2,0-0.4,0-0.6c0.3,0.2,0.7,0.4,1,0.6c-0.6,0.7-1.2,1.4-1.8,2.1
	c-0.3,0.3-2.4,2.8-3.9,4.7c-0.5,0.7-1,1.3-1.2,1.8c-0.2,0.3-0.2,0.5-0.2,0.7c0,0.1,0.1,0.2,0.1,0.2c0.1,0.1,0.3,0.1,0.3,0.1
	c0.5,0,1-0.1,1.5-0.3c0.7-0.3,1.4-0.7,2-1.1c1-0.6,2-1.2,3-1.9c1.5-1,3-2,4.5-2.9c2.7-1.7,5.4-3.4,8.2-5c2.8-1.6,5.5-3,8.4-4.3
	c1.1-0.5,1.9-0.9,2.8-1.2c0.9-0.3,1.7-0.7,2.8-1.1c0.5-0.2,0.9-0.3,1.4-0.5c0.7-0.2,1.4-0.4,2.2-0.6
	C268.9,330.9,268.9,330.9,268.9,330.9 M240.7,338.6c-0.5,0.5-1,1.1-1.5,1.6c0.2,0.1,0.4,0.2,0.6,0.3c0.4,0.1,0.7,0.2,1,0.2
	c0-0.1-0.1-0.4-0.1-0.6C240.8,339.6,240.8,339.1,240.7,338.6z M240.3,332.9c-0.9,0.7-1.8,1.4-2.6,2.1c0,1.5,0,2.9,0.1,4.4
	c0.4,0.2,0.8,0.5,1.3,0.7c0.6-0.6,1.2-1.3,1.7-1.9l0-0.4c0-0.8-0.1-1.5-0.2-2.3C240.5,334.8,240.4,333.9,240.3,332.9z M237.4,335.2
	c-1.1,0.9-2.1,1.7-3.2,2.6l-1.7,1.3c0.1,0,0.3-0.1,0.4-0.1c1.5-0.4,3.1-0.3,4.4,0.2c0.1,0,0.1,0.1,0.2,0.1
	C237.5,337.9,237.5,336.5,237.4,335.2z M254.8,323c-0.1,0-0.3,0.1-0.4,0.1c-0.4,0.2-0.9,0.3-1.3,0.5c-0.4,0.2-0.8,0.4-1.2,0.7
	c-0.6,0.3-1.4,0.9-2.2,1.4c-0.8,0.6-1.7,1.1-2.2,1.5c-1.8,1.3-3.6,2.7-5.3,4.1c-0.5,0.4-1.1,0.9-1.6,1.3c0.1,1.1,0.2,2,0.3,2.8
	c0.1,0.8,0.1,1.5,0.2,2.3l0,0.1c0.7-0.8,0.8-0.6,1.6-1.3c2.1-2.2,4.9-5.4,7.1-7.5c0.9-0.9,2.4-2,3.5-3.2
	C253.9,325,254.5,324.1,254.8,323z M237.5,321.1c0,0.1,0,0.2,0,0.3c0,0.3-0.1,0.6-0.1,0.9c0,0.3,0,0.6,0,0.9c0,0.6,0,1.2,0,1.8
	c0,0.9,0.1,1.8,0.1,2.7c0.1,1.3,0.1,2.5,0.1,3.8c0,1.1,0,2.1,0,3.2c0.9-0.7,1.7-1.4,2.6-2.1c-0.2-1.9-0.5-4.1-0.9-6.2
	C238.9,324.2,238.3,322.2,237.5,321.1z"/>
<path class="st12" d="M243.3,330.5c0.1,0,0.2,0,0.3,0c2.1,0.3,5.2,1.5,7.8,3c1.6,0.9,3,1.9,3.9,2.9c0.5,0.6,0.8,1.2,0.7,1.8
	c-0.2,1.2-1.8,2.4-3.8,3.5c-1.4,0.8-3,1.5-4.6,2.2c-3,1.3-5.8,2.3-7.1,2.9c-0.1,0-0.1,0.1-0.1,0.2c0,0.1,0.1,0.1,0.2,0.1
	c1.2-0.6,4.1-1.6,7.1-2.9c1.6-0.7,3.2-1.4,4.6-2.2c2.1-1.2,3.7-2.5,4-3.8c0.1-0.6-0.2-1.3-0.7-2.1c-0.8-1-2.3-2.1-3.9-3
	c-2.6-1.5-5.8-2.7-7.9-3c-1.1-0.2-1.9-0.1-2.2,0.2c-0.4,0.3-0.5,0.8-0.4,1.4c0.1,0.8,0.6,1.9,1.2,3c1.3,2.1,3.2,4.3,4,4.7
	c0.2,0.1,0.3,0.1,0.4,0.1c0.1,0,0.2-0.2,0.1-0.6c-0.2-0.4-0.3-0.8-0.5-1.2c-0.4-1-0.8-1.9-1.2-2.9c-0.7-1.8-0.9-2.2-1.3-3.3
	C243.7,331.3,243.5,330.9,243.3,330.5z M243.1,330.5c-0.6-0.1-1.1,0-1.3,0.2c-0.3,0.3-0.3,0.6-0.3,1.1c0.1,0.8,0.6,1.8,1.2,2.8
	c1,1.7,2.4,3.4,3.3,4.2c0.2,0.2,0.4,0.3,0.5,0.4c0,0,0,0,0.1,0c0,0,0-0.1,0-0.1c-0.1-0.4-0.3-0.8-0.5-1.2c-0.4-1-0.8-1.9-1.2-2.9
	L243.1,330.5z"/>
<g>
	<g>
		<g>
			<path class="st13" d="M217.2,314.9c1-0.6,1.8-0.1,1.8,1c0,1.1-0.8,2.5-1.8,3.1l-39.2,22.6c-1,0.6-1.8,0.1-1.8-1
				c0-1.1,0.8-2.5,1.8-3.1L217.2,314.9z"/>
		</g>
	</g>
</g>
<g>
	<g>
		<g>
			<path class="st14" d="M145.3,216.5c0.6-0.3,1-0.1,1.1,0.6s-0.5,1.5-1,1.8l-32,18.5c-0.6,0.3-1.1,0.1-1.1-0.6s0.5-1.5,1.1-1.8
				l1.7-1l-0.1-19.1l-1.7,1c-0.6,0.3-1.1,0.1-1.1-0.6c0-0.7,0.5-1.5,1.1-1.8l7.5-4.3c0-5,3.2-11,7.4-14l0-7.1c0-0.7,0.5-1.5,1-1.8
				l6.3-3.6c0.6-0.3,1-0.1,1.1,0.6l0,4.3c0,0.7-0.5,1.5-1,1.8l-2.6,1.5c-0.6,0.3-1.1,0.1-1.1-0.6s0.5-1.5,1.1-1.8l1.5-0.9l0-1.9
				l-4.2,2.4l0,5.9c4.2-1.8,7.5,0.4,7.5,5.4l7.5-4.3c0.6-0.3,1-0.1,1.1,0.6c0,0.7-0.5,1.5-1,1.8L117,213.8l0.1,19.1l6.3-3.6l0-11.3
				c0-0.7,0.5-1.5,1.1-1.8l9.9-5.7c0.6-0.3,1-0.1,1.1,0.6l0,11.3l6.3-3.6l0-14.5c0-0.7,0.5-1.5,1-1.8c0.6-0.3,1.1-0.1,1.1,0.6
				l0,14.5L145.3,216.5z M129.2,196.9c-3.5,2-6.3,6.9-6.4,11l12.8-7.4C135.6,196.5,132.7,194.9,129.2,196.9 M133.2,223.5l0-10.1
				l-2.8,1.6l0,5.8c0,0.7-0.5,1.5-1.1,1.8c-0.6,0.3-1,0.1-1.1-0.6l0-5.8l-2.9,1.6l0,10.1L133.2,223.5"/>
		</g>
	</g>
</g>
</svg>
