<?xml version="1.0" encoding="UTF-8" standalone="no"?>
<svg
   xmlns:dc="http://purl.org/dc/elements/1.1/"
   xmlns:cc="http://creativecommons.org/ns#"
   xmlns:rdf="http://www.w3.org/1999/02/22-rdf-syntax-ns#"
   xmlns:svg="http://www.w3.org/2000/svg"
   xmlns="http://www.w3.org/2000/svg"
   id="svg8"
   version="1.1"
   viewBox="0 0 110.48908 22.422727"
   height="22.422728mm"
   width="110.48907mm">
  <defs
     id="defs2">
    <style
       id="style80">.cls-1{fill:#3c3c3b;}.cls-2{fill:#2b93d1;}.cls-3{fill:none;stroke:#fff;stroke-width:7.04px;}.cls-4{fill:#ea0a8c;}</style>
    <style
       id="style1061">.cls-1{fill:#3c3c3b;}.cls-2{fill:#de047b;}</style>
  </defs>
  <metadata
     id="metadata5">
    <rdf:RDF>
      <cc:Work
         rdf:about="">
        <dc:format>image/svg+xml</dc:format>
        <dc:type
           rdf:resource="http://purl.org/dc/dcmitype/StillImage" />
        <dc:title></dc:title>
      </cc:Work>
    </rdf:RDF>
  </metadata>
  <g
     transform="translate(-5.1533279,-1.8228961)"
     id="layer1">
    <g
       transform="matrix(0.26458333,0,0,0.26458333,5.1533279,1.8228961)"
       id="Calque_2"
       data-name="Calque 2">
      <g
         id="Calque_1-2"
         data-name="Calque 1">
        <path
           style="fill:#3c3c3b"
           class="cls-1"
           d="M 65.51,13.88 A 4.93,4.93 0 1 0 60.58,9 a 4.93,4.93 0 0 0 4.93,4.93"
           id="path86" />
        <path
           style="fill:#3c3c3b"
           class="cls-1"
           d="M 79.49,29.61 A 5.54,5.54 0 1 0 74,24.07 a 5.54,5.54 0 0 0 5.53,5.54"
           id="path88" />
        <path
           style="fill:#3c3c3b"
           class="cls-1"
           d="M 43.61,8.36 A 4.18,4.18 0 1 0 39.43,4.18 4.18,4.18 0 0 0 43.61,8.36"
           id="path90" />
        <path
           style="fill:#3c3c3b"
           class="cls-1"
           d="m 80.15,30.49 c -3.63,0 -6.57,2.59 -6.57,5.79 V 43.8 H 72 l -5.21,-9.5 a 5.91,5.91 0 0 0 5.15,-5.88 v -7.66 a 5.85,5.85 0 1 0 -11.7,0 v 1.56 L 59.08,20.2 a 4.14,4.14 0 0 0 -3.44,-2.12 h -7.06 v -4.31 c 0,-2.41 -2.23,-4.37 -5,-4.37 -2.77,0 -5,2 -5,4.37 v 4.31 h -6.6 a 4.31,4.31 0 0 0 -3.44,2.12 l -1.76,3.07 v -2.74 a 5.85,5.85 0 1 0 -11.7,0 v 7.67 a 5.89,5.89 0 0 0 5.48,5.91 l -5.58,9.71 c -0.2,0 -0.41,0 -0.62,0 h -1.21 v -7.54 c 0,-3.2 -3,-5.8 -6.58,-5.8 -3.58,0 -6.57,2.6 -6.57,5.8 v 14.87 c 0,3.2 2.94,5.79 6.57,5.79 h 0.21 0.16 7.49 0.39 57 a 4.24,4.24 0 0 0 0.51,0 h 7.49 0.16 0.21 c 3.62,0 6.57,-2.59 6.57,-5.79 V 36.28 c 0,-3.2 -3,-5.79 -6.57,-5.79"
           id="path92" />
        <path
           style="fill:#3c3c3b"
           class="cls-1"
           d="m 21.58,13.65 a 4.93,4.93 0 1 0 -4.93,-4.93 4.92,4.92 0 0 0 4.93,4.93"
           id="path94" />
        <path
           style="fill:#3c3c3b"
           class="cls-1"
           d="M 7.23,29.6 A 5.54,5.54 0 1 0 1.69,24.07 5.53,5.53 0 0 0 7.23,29.6"
           id="path96" />
        <path
           style="fill:#2b93d1"
           class="cls-2"
           d="m 52,50.83 c 0,-4.07 -3.74,-7.37 -8.37,-7.37 -4.63,0 -8.37,3.3 -8.37,7.37 v 9.54 c 0,4.07 3.75,7.37 8.37,7.37 4.62,0 8.37,-3.3 8.37,-7.37 z M 50.65,34.64 a 7.05,7.05 0 1 1 -7,-7 7.05,7.05 0 0 1 7,7"
           id="path98" />
        <path
           style="fill:none;stroke:#ffffff;stroke-width:7.03999996px"
           class="cls-3"
           d="m 52,50.83 c 0,-4.07 -3.74,-7.37 -8.37,-7.37 -4.63,0 -8.37,3.3 -8.37,7.37 v 9.54 c 0,4.07 3.75,7.37 8.37,7.37 4.62,0 8.37,-3.3 8.37,-7.37 z M 50.65,34.64 a 7.05,7.05 0 1 1 -7,-7 7.05,7.05 0 0 1 7,7 z"
           id="path100" />
        <path
           style="fill:#ea0a8c"
           class="cls-4"
           d="m 52,50.83 c 0,-4.07 -3.74,-7.37 -8.37,-7.37 -4.63,0 -8.37,3.3 -8.37,7.37 v 9.54 c 0,4.07 3.75,7.37 8.37,7.37 4.62,0 8.37,-3.3 8.37,-7.37 z M 50.65,34.64 a 7.05,7.05 0 1 1 -7,-7 7.05,7.05 0 0 1 7,7"
           id="path102" />
      </g>
    </g>
    <g
       transform="translate(2.7403273,-2.5513393)"
       style="fill:#de007b;fill-opacity:0.99168402"
       id="g935">
      <g
         id="text126"
         style="font-style:normal;font-weight:normal;font-size:10.58333302px;line-height:1.25;font-family:sans-serif;letter-spacing:0px;word-spacing:0px;fill:#de007b;fill-opacity:0.99168402;stroke:none;stroke-width:0.26458332"
         aria-label="Délibérations.be">
        <path
           id="path1128"
           style="font-style:normal;font-variant:normal;font-weight:600;font-stretch:normal;font-size:10.58333302px;font-family:Quicksand;-inkscape-font-specification:'Quicksand, Semi-Bold';font-variant-ligatures:normal;font-variant-caps:normal;font-variant-numeric:normal;font-feature-settings:normal;text-align:start;writing-mode:lr-tb;text-anchor:start;fill:#de007b;fill-opacity:0.99168402;stroke-width:0.26458332"
           d="m 35.823827,9.1333329 q 0.772583,0 1.36525,0.2963333 0.592667,0.28575 0.98425,0.8043338 0.402167,0.508 0.60325,1.185333 0.201083,0.66675 0.201083,1.418166 0,1.026584 -0.359833,1.87325 -0.359833,0.836084 -1.058333,1.3335 -0.6985,0.497417 -1.735667,0.497417 h -2.582333 q -0.22225,0 -0.381,-0.148167 -0.15875,-0.15875 -0.15875,-0.391583 V 9.6730829 q 0,-0.2328333 0.15875,-0.381 0.15875,-0.15875 0.381,-0.15875 z m -0.105833,6.3923331 q 0.751416,0 1.217083,-0.370417 0.465667,-0.370416 0.677333,-0.973666 0.22225,-0.613834 0.22225,-1.344084 0,-0.53975 -0.127,-1.015999 -0.116416,-0.486834 -0.381,-0.85725 -0.254,-0.381 -0.656166,-0.592667 -0.391584,-0.22225 -0.9525,-0.22225 h -2.00025 l 0.09525,-0.09525 v 5.577416 l -0.0635,-0.105833 z" />
        <path
           id="path1130"
           style="font-style:normal;font-variant:normal;font-weight:600;font-stretch:normal;font-size:10.58333302px;font-family:Quicksand;-inkscape-font-specification:'Quicksand, Semi-Bold';font-variant-ligatures:normal;font-variant-caps:normal;font-variant-numeric:normal;font-feature-settings:normal;text-align:start;writing-mode:lr-tb;text-anchor:start;fill:#de007b;fill-opacity:0.99168402;stroke-width:0.26458332"
           d="m 42.78765,16.647499 q -0.867833,0 -1.524,-0.359833 -0.645583,-0.370417 -1.005416,-1.005417 -0.34925,-0.645583 -0.34925,-1.471083 0,-0.931333 0.370416,-1.5875 0.381,-0.66675 0.98425,-1.016 0.613833,-0.359833 1.291167,-0.359833 0.508,0 0.973666,0.211667 0.47625,0.201083 0.836084,0.5715 0.359833,0.359833 0.5715,0.857249 0.211666,0.486834 0.22225,1.068917 -0.01058,0.211667 -0.169334,0.34925 -0.15875,0.137583 -0.370416,0.137583 h -4.106333 l -0.254,-0.899583 h 3.979333 l -0.201084,0.1905 v -0.264583 q -0.03175,-0.370417 -0.254,-0.645584 -0.22225,-0.28575 -0.550333,-0.433916 -0.3175,-0.15875 -0.677333,-0.15875 -0.3175,0 -0.613834,0.105833 -0.296333,0.09525 -0.518583,0.3175 -0.22225,0.22225 -0.359833,0.592667 -0.137584,0.359833 -0.137584,0.899583 0,0.582083 0.243417,1.016 0.243417,0.433917 0.656167,0.677333 0.41275,0.232834 0.92075,0.232834 0.381,0 0.635,-0.07408 0.254,-0.08467 0.423333,-0.201083 0.169333,-0.116417 0.296333,-0.22225 0.169334,-0.09525 0.3175,-0.09525 0.1905,0 0.3175,0.137583 0.127,0.127 0.127,0.306917 0,0.232833 -0.232833,0.423333 -0.28575,0.275167 -0.79375,0.486834 -0.497417,0.211666 -1.04775,0.211666 z m -0.254,-6.074833 q -0.07408,0 -0.1905,-0.07408 -0.105833,-0.08467 -0.09525,-0.22225 0,-0.08467 0.0635,-0.179917 L 42.935817,9.0380829 Q 43.0099,8.9004996 43.1369,8.7946663 q 0.137583,-0.1164167 0.306917,-0.1164167 0.243416,0 0.370416,0.1375833 0.127,0.127 0.116417,0.3280834 -0.01058,0.09525 -0.05292,0.1904999 -0.04233,0.09525 -0.116416,0.1905 l -0.804334,0.8784168 q -0.09525,0.09525 -0.211666,0.137583 -0.105834,0.03175 -0.211667,0.03175 z" />
        <path
           id="path1132"
           style="font-style:normal;font-variant:normal;font-weight:600;font-stretch:normal;font-size:10.58333302px;font-family:Quicksand;-inkscape-font-specification:'Quicksand, Semi-Bold';font-variant-ligatures:normal;font-variant-caps:normal;font-variant-numeric:normal;font-feature-settings:normal;text-align:start;writing-mode:lr-tb;text-anchor:start;fill:#de007b;fill-opacity:0.99168402;stroke-width:0.26458332"
           d="m 47.444302,16.001916 q 0,0.232833 -0.15875,0.391583 -0.148167,0.148167 -0.370417,0.148167 -0.22225,0 -0.381,-0.148167 -0.148166,-0.15875 -0.148166,-0.391583 V 9.2497496 q 0,-0.2328333 0.15875,-0.381 0.15875,-0.15875 0.381,-0.15875 0.232833,0 0.370416,0.15875 0.148167,0.1481667 0.148167,0.381 z" />
        <path
           id="path1134"
           style="font-style:normal;font-variant:normal;font-weight:600;font-stretch:normal;font-size:10.58333302px;font-family:Quicksand;-inkscape-font-specification:'Quicksand, Semi-Bold';font-variant-ligatures:normal;font-variant-caps:normal;font-variant-numeric:normal;font-feature-settings:normal;text-align:start;writing-mode:lr-tb;text-anchor:start;fill:#de007b;fill-opacity:0.99168402;stroke-width:0.26458332"
           d="m 50.016051,16.001916 q 0,0.232833 -0.148167,0.391583 -0.148167,0.148167 -0.381,0.148167 -0.22225,0 -0.381,-0.148167 -0.148167,-0.15875 -0.148167,-0.391583 V 11.47225 q 0,-0.232834 0.148167,-0.381 0.15875,-0.15875 0.381,-0.15875 0.232833,0 0.381,0.15875 0.148167,0.148166 0.148167,0.381 z M 49.476301,10.234 q -0.306917,0 -0.4445,-0.105834 Q 48.894217,10.01175 48.894217,9.7471662 V 9.5778329 q 0,-0.2645833 0.148167,-0.3704166 0.148167,-0.1058334 0.4445,-0.1058334 0.3175,0 0.455083,0.1164167 0.137584,0.1058333 0.137584,0.3598333 v 0.1693333 q 0,0.2751668 -0.148167,0.3809998 Q 49.793801,10.234 49.476301,10.234 Z" />
        <path
           id="path1136"
           style="font-style:normal;font-variant:normal;font-weight:600;font-stretch:normal;font-size:10.58333302px;font-family:Quicksand;-inkscape-font-specification:'Quicksand, Semi-Bold';font-variant-ligatures:normal;font-variant-caps:normal;font-variant-numeric:normal;font-feature-settings:normal;text-align:start;writing-mode:lr-tb;text-anchor:start;fill:#de007b;fill-opacity:0.99168402;stroke-width:0.26458332"
           d="m 54.249366,10.847833 q 0.740833,0 1.312333,0.370417 0.582083,0.370416 0.92075,1.026583 0.338666,0.645583 0.338666,1.49225 0,0.846666 -0.338666,1.502833 -0.338667,0.656167 -0.910167,1.037167 -0.5715,0.370416 -1.291166,0.370416 -0.402167,0 -0.762,-0.127 -0.359834,-0.137583 -0.635,-0.338666 -0.275167,-0.211667 -0.455084,-0.4445 -0.169333,-0.232834 -0.211666,-0.433917 l 0.28575,-0.137583 v 0.92075 q 0,0.22225 -0.15875,0.381 -0.148167,0.148166 -0.370417,0.148166 -0.232833,0 -0.381,-0.148166 -0.148167,-0.148167 -0.148167,-0.381 V 9.2497496 q 0,-0.2328333 0.148167,-0.381 0.148167,-0.15875 0.381,-0.15875 0.22225,0 0.370417,0.15875 0.15875,0.1481667 0.15875,0.381 v 2.9739164 l -0.169334,-0.09525 q 0.03175,-0.201083 0.201084,-0.41275 0.169333,-0.22225 0.423333,-0.423333 0.264583,-0.201083 0.592667,-0.3175 0.338666,-0.127 0.6985,-0.127 z M 54.132949,11.8215 q -0.508,0 -0.889,0.253999 -0.370417,0.254 -0.582083,0.687917 -0.211667,0.423333 -0.211667,0.973667 0,0.550333 0.211667,0.994833 0.211666,0.433917 0.582083,0.687917 0.381,0.254 0.889,0.254 0.497417,0 0.867833,-0.254 0.370417,-0.254 0.582083,-0.6985 0.22225,-0.4445 0.22225,-0.98425 0,-0.550334 -0.22225,-0.973667 Q 55.371199,12.329499 55.000782,12.075499 54.630366,11.8215 54.132949,11.8215 Z" />
        <path
           id="path1138"
           style="font-style:normal;font-variant:normal;font-weight:600;font-stretch:normal;font-size:10.58333302px;font-family:Quicksand;-inkscape-font-specification:'Quicksand, Semi-Bold';font-variant-ligatures:normal;font-variant-caps:normal;font-variant-numeric:normal;font-feature-settings:normal;text-align:start;writing-mode:lr-tb;text-anchor:start;fill:#de007b;fill-opacity:0.99168402;stroke-width:0.26458332"
           d="m 60.504107,16.647499 q -0.867833,0 -1.523999,-0.359833 -0.645584,-0.370417 -1.005417,-1.005417 -0.34925,-0.645583 -0.34925,-1.471083 0,-0.931333 0.370417,-1.5875 0.381,-0.66675 0.98425,-1.016 0.613833,-0.359833 1.291166,-0.359833 0.508,0 0.973667,0.211667 0.47625,0.201083 0.836083,0.5715 0.359833,0.359833 0.5715,0.857249 0.211667,0.486834 0.22225,1.068917 -0.01058,0.211667 -0.169333,0.34925 -0.15875,0.137583 -0.370417,0.137583 h -4.106333 l -0.254,-0.899583 h 3.979333 l -0.201083,0.1905 v -0.264583 q -0.03175,-0.370417 -0.254,-0.645584 -0.22225,-0.28575 -0.550334,-0.433916 -0.3175,-0.15875 -0.677333,-0.15875 -0.3175,0 -0.613833,0.105833 -0.296333,0.09525 -0.518583,0.3175 -0.22225,0.22225 -0.359834,0.592667 -0.137583,0.359833 -0.137583,0.899583 0,0.582083 0.243417,1.016 0.243416,0.433917 0.656166,0.677333 0.41275,0.232834 0.92075,0.232834 0.381,0 0.635,-0.07408 0.254,-0.08467 0.423333,-0.201083 0.169334,-0.116417 0.296334,-0.22225 0.169333,-0.09525 0.3175,-0.09525 0.1905,0 0.3175,0.137583 0.127,0.127 0.127,0.306917 0,0.232833 -0.232834,0.423333 -0.28575,0.275167 -0.79375,0.486834 -0.497416,0.211666 -1.04775,0.211666 z m -0.254,-6.074833 q -0.07408,0 -0.1905,-0.07408 -0.105833,-0.08467 -0.09525,-0.22225 0,-0.08467 0.0635,-0.179917 l 0.624417,-1.0583331 q 0.07408,-0.1375833 0.201083,-0.2434166 0.137584,-0.1164167 0.306917,-0.1164167 0.243417,0 0.370417,0.1375833 0.127,0.127 0.116416,0.3280834 -0.01058,0.09525 -0.05292,0.1904999 -0.04233,0.09525 -0.116417,0.1905 l -0.804333,0.8784168 q -0.09525,0.09525 -0.211667,0.137583 -0.105833,0.03175 -0.211667,0.03175 z" />
        <path
           id="path1140"
           style="font-style:normal;font-variant:normal;font-weight:600;font-stretch:normal;font-size:10.58333302px;font-family:Quicksand;-inkscape-font-specification:'Quicksand, Semi-Bold';font-variant-ligatures:normal;font-variant-caps:normal;font-variant-numeric:normal;font-feature-settings:normal;text-align:start;writing-mode:lr-tb;text-anchor:start;fill:#de007b;fill-opacity:0.99168402;stroke-width:0.26458332"
           d="m 64.546926,16.541666 q -0.232833,0 -0.381,-0.148167 -0.148167,-0.15875 -0.148167,-0.391583 v -4.487333 q 0,-0.232833 0.148167,-0.381 0.148167,-0.15875 0.381,-0.15875 0.22225,0 0.370417,0.15875 0.15875,0.148167 0.15875,0.381 v 1.185333 l -0.105834,-0.455083 q 0.08467,-0.296333 0.254,-0.550333 0.179917,-0.254 0.423334,-0.4445 0.243416,-0.1905 0.53975,-0.296334 0.306916,-0.105833 0.635,-0.105833 0.275166,0 0.47625,0.148167 0.201083,0.148166 0.201083,0.370416 0,0.28575 -0.148167,0.423334 -0.148166,0.127 -0.328083,0.127 -0.15875,0 -0.306917,-0.0635 -0.148166,-0.07408 -0.34925,-0.07408 -0.22225,0 -0.455083,0.116417 -0.232833,0.116417 -0.423333,0.34925 -0.1905,0.22225 -0.306917,0.529166 -0.105833,0.306917 -0.105833,0.687917 v 2.54 q 0,0.232833 -0.15875,0.391583 -0.148167,0.148167 -0.370417,0.148167 z" />
        <path
           id="path1142"
           style="font-style:normal;font-variant:normal;font-weight:600;font-stretch:normal;font-size:10.58333302px;font-family:Quicksand;-inkscape-font-specification:'Quicksand, Semi-Bold';font-variant-ligatures:normal;font-variant-caps:normal;font-variant-numeric:normal;font-feature-settings:normal;text-align:start;writing-mode:lr-tb;text-anchor:start;fill:#de007b;fill-opacity:0.99168402;stroke-width:0.26458332"
           d="m 72.833658,10.890166 q 0.22225,0 0.370417,0.15875 0.15875,0.148167 0.15875,0.381 v 4.572 q 0,0.232833 -0.15875,0.391583 -0.148167,0.148167 -0.370417,0.148167 -0.232833,0 -0.381,-0.148167 -0.148166,-0.15875 -0.148166,-0.391583 v -0.762 l 0.211666,0.03175 q 0,0.1905 -0.15875,0.423333 -0.148166,0.232834 -0.41275,0.455084 -0.264583,0.211666 -0.624416,0.359833 -0.359834,0.137583 -0.772584,0.137583 -0.730249,0 -1.312333,-0.370416 -0.582083,-0.381 -0.92075,-1.037167 -0.338666,-0.656167 -0.338666,-1.49225 0,-0.85725 0.338666,-1.502833 0.338667,-0.656167 0.910167,-1.026583 0.582083,-0.370417 1.291166,-0.370417 0.455084,0 0.836084,0.148167 0.391583,0.148166 0.677333,0.381 0.28575,0.232833 0.4445,0.497416 0.15875,0.254 0.15875,0.486833 l -0.328083,0.03175 v -0.963083 q 0,-0.22225 0.148166,-0.381 0.148167,-0.15875 0.381,-0.15875 z m -2.159,4.783667 q 0.497417,0 0.867834,-0.254 0.381,-0.254 0.592666,-0.687917 0.211667,-0.4445 0.211667,-0.98425 0,-0.550333 -0.211667,-0.98425 -0.211666,-0.433917 -0.592666,-0.687917 -0.370417,-0.253999 -0.867834,-0.253999 -0.486833,0 -0.867833,0.253999 -0.381,0.254 -0.592666,0.687917 -0.211667,0.433917 -0.211667,0.98425 0,0.53975 0.211667,0.98425 0.211666,0.433917 0.582083,0.687917 0.381,0.254 0.878416,0.254 z" />
        <path
           id="path1144"
           style="font-style:normal;font-variant:normal;font-weight:600;font-stretch:normal;font-size:10.58333302px;font-family:Quicksand;-inkscape-font-specification:'Quicksand, Semi-Bold';font-variant-ligatures:normal;font-variant-caps:normal;font-variant-numeric:normal;font-feature-settings:normal;text-align:start;writing-mode:lr-tb;text-anchor:start;fill:#de007b;fill-opacity:0.99168402;stroke-width:0.26458332"
           d="m 74.759813,11.038333 h 2.487084 q 0.211666,0 0.34925,0.148167 0.148166,0.137583 0.148166,0.34925 0,0.201083 -0.148166,0.338666 Q 77.458563,12.012 77.246897,12.012 h -2.487084 q -0.211666,0 -0.359833,-0.137584 -0.137583,-0.148166 -0.137583,-0.34925 0,-0.211666 0.137583,-0.34925 0.148167,-0.137583 0.359833,-0.137583 z m 1.11125,-1.3758334 q 0.232834,0 0.381,0.15875 0.148167,0.1481666 0.148167,0.3810004 v 4.910666 q 0,0.1905 0.0635,0.306917 0.0635,0.116416 0.169333,0.15875 0.116417,0.04233 0.232834,0.04233 0.116416,0 0.201083,-0.04233 0.09525,-0.04233 0.22225,-0.04233 0.127,0 0.232833,0.116417 0.105834,0.116417 0.105834,0.3175 0,0.254 -0.275167,0.41275 -0.275167,0.15875 -0.592667,0.15875 -0.179916,0 -0.423333,-0.03175 -0.243417,-0.03175 -0.47625,-0.15875 -0.22225,-0.127 -0.370417,-0.402167 -0.148166,-0.28575 -0.148166,-0.79375 V 10.20225 q 0,-0.2328338 0.148166,-0.3810004 0.15875,-0.15875 0.381,-0.15875 z" />
        <path
           id="path1146"
           style="font-style:normal;font-variant:normal;font-weight:600;font-stretch:normal;font-size:10.58333302px;font-family:Quicksand;-inkscape-font-specification:'Quicksand, Semi-Bold';font-variant-ligatures:normal;font-variant-caps:normal;font-variant-numeric:normal;font-feature-settings:normal;text-align:start;writing-mode:lr-tb;text-anchor:start;fill:#de007b;fill-opacity:0.99168402;stroke-width:0.26458332"
           d="m 79.913893,16.001916 q 0,0.232833 -0.148167,0.391583 -0.148166,0.148167 -0.381,0.148167 -0.22225,0 -0.381,-0.148167 -0.148166,-0.15875 -0.148166,-0.391583 V 11.47225 q 0,-0.232834 0.148166,-0.381 0.15875,-0.15875 0.381,-0.15875 0.232834,0 0.381,0.15875 0.148167,0.148166 0.148167,0.381 z M 79.374143,10.234 q -0.306917,0 -0.4445,-0.105834 Q 78.79206,10.01175 78.79206,9.7471662 V 9.5778329 q 0,-0.2645833 0.148166,-0.3704166 0.148167,-0.1058334 0.4445,-0.1058334 0.3175,0 0.455084,0.1164167 0.137583,0.1058333 0.137583,0.3598333 v 0.1693333 q 0,0.2751668 -0.148167,0.3809998 Q 79.691643,10.234 79.374143,10.234 Z" />
        <path
           id="path1148"
           style="font-style:normal;font-variant:normal;font-weight:600;font-stretch:normal;font-size:10.58333302px;font-family:Quicksand;-inkscape-font-specification:'Quicksand, Semi-Bold';font-variant-ligatures:normal;font-variant-caps:normal;font-variant-numeric:normal;font-feature-settings:normal;text-align:start;writing-mode:lr-tb;text-anchor:start;fill:#de007b;fill-opacity:0.99168402;stroke-width:0.26458332"
           d="m 86.634291,13.758249 q 0,0.846667 -0.381,1.502834 -0.370416,0.645583 -1.005416,1.016 -0.635,0.370416 -1.42875,0.370416 -0.783167,0 -1.42875,-0.370416 -0.635,-0.370417 -1.016,-1.016 -0.370417,-0.656167 -0.370417,-1.502834 0,-0.85725 0.370417,-1.502833 0.381,-0.656166 1.016,-1.026583 0.645583,-0.381 1.42875,-0.381 0.79375,0 1.42875,0.381 0.635,0.370417 1.005416,1.026583 0.381,0.645583 0.381,1.502833 z m -1.058333,0 q 0,-0.582083 -0.232833,-1.005416 -0.232834,-0.433917 -0.635,-0.677334 -0.391584,-0.253999 -0.889,-0.253999 -0.486834,0 -0.889,0.253999 -0.391584,0.243417 -0.635,0.677334 -0.232834,0.423333 -0.232834,1.005416 0,0.560917 0.232834,0.994834 0.243416,0.433916 0.635,0.677333 0.402166,0.243417 0.889,0.243417 0.497416,0 0.889,-0.243417 0.402166,-0.243417 0.635,-0.677333 0.232833,-0.433917 0.232833,-0.994834 z" />
        <path
           id="path1150"
           style="font-style:normal;font-variant:normal;font-weight:600;font-stretch:normal;font-size:10.58333302px;font-family:Quicksand;-inkscape-font-specification:'Quicksand, Semi-Bold';font-variant-ligatures:normal;font-variant-caps:normal;font-variant-numeric:normal;font-feature-settings:normal;text-align:start;writing-mode:lr-tb;text-anchor:start;fill:#de007b;fill-opacity:0.99168402;stroke-width:0.26458332"
           d="m 90.645374,10.847833 q 0.751416,0 1.164166,0.3175 0.41275,0.306917 0.5715,0.836083 0.169334,0.518583 0.169334,1.164167 v 2.836333 q 0,0.232833 -0.15875,0.391583 -0.148167,0.148167 -0.370417,0.148167 -0.232833,0 -0.381,-0.148167 -0.148167,-0.15875 -0.148167,-0.391583 v -2.82575 q 0,-0.381 -0.105833,-0.677333 -0.105833,-0.306917 -0.370417,-0.486833 -0.254,-0.1905 -0.719666,-0.1905 -0.433917,0 -0.762,0.1905 -0.328084,0.179916 -0.518584,0.486833 -0.179916,0.296333 -0.179916,0.677333 v 2.82575 q 0,0.232833 -0.15875,0.391583 -0.148167,0.148167 -0.370417,0.148167 -0.232833,0 -0.381,-0.148167 -0.148167,-0.15875 -0.148167,-0.391583 v -4.487333 q 0,-0.232833 0.148167,-0.381 0.148167,-0.15875 0.381,-0.15875 0.22225,0 0.370417,0.15875 0.15875,0.148167 0.15875,0.381 v 0.592666 l -0.1905,0.105834 q 0.07408,-0.232833 0.254,-0.465667 0.1905,-0.243416 0.455083,-0.4445 0.264583,-0.211666 0.592667,-0.328083 0.328083,-0.127 0.6985,-0.127 z" />
        <path
           id="path1152"
           style="font-style:normal;font-variant:normal;font-weight:600;font-stretch:normal;font-size:10.58333302px;font-family:Quicksand;-inkscape-font-specification:'Quicksand, Semi-Bold';font-variant-ligatures:normal;font-variant-caps:normal;font-variant-numeric:normal;font-feature-settings:normal;text-align:start;writing-mode:lr-tb;text-anchor:start;fill:#de007b;fill-opacity:0.99168402;stroke-width:0.26458332"
           d="m 93.693355,15.673833 q -0.09525,-0.148167 -0.08467,-0.338667 0.01058,-0.201083 0.22225,-0.338667 0.148166,-0.09525 0.306916,-0.07408 0.169334,0.01058 0.3175,0.15875 0.296334,0.328083 0.656167,0.518583 0.370417,0.1905 0.889,0.1905 0.211667,-0.01058 0.433917,-0.0635 0.22225,-0.0635 0.381,-0.211666 0.15875,-0.15875 0.15875,-0.455084 0,-0.264583 -0.169334,-0.423333 -0.169333,-0.15875 -0.4445,-0.254 -0.275166,-0.105833 -0.592666,-0.1905 -0.338667,-0.09525 -0.687917,-0.211667 -0.338667,-0.116416 -0.613833,-0.296333 -0.275167,-0.1905 -0.455084,-0.486833 -0.169333,-0.296334 -0.169333,-0.73025 0,-0.497417 0.275167,-0.85725 0.28575,-0.359833 0.73025,-0.560917 0.455083,-0.201083 0.98425,-0.201083 0.306916,0 0.645583,0.08467 0.338667,0.07408 0.656167,0.243416 0.3175,0.169334 0.550333,0.4445 0.105833,0.137584 0.116417,0.328084 0.02117,0.190499 -0.169334,0.338666 -0.127,0.105833 -0.306916,0.09525 -0.179917,-0.01058 -0.296334,-0.116417 -0.201083,-0.253999 -0.518583,-0.391583 -0.3175,-0.148166 -0.719667,-0.148166 -0.201083,0 -0.423333,0.0635 -0.211667,0.05292 -0.359833,0.201083 -0.148167,0.148166 -0.148167,0.433916 0,0.264584 0.169333,0.423334 0.179917,0.15875 0.465667,0.264583 0.28575,0.105833 0.624417,0.1905 0.328083,0.08467 0.645583,0.201083 0.328083,0.116417 0.582083,0.306917 0.264584,0.179917 0.423334,0.47625 0.169333,0.28575 0.169333,0.73025 0,0.518583 -0.306917,0.889 -0.296333,0.359833 -0.762,0.550333 -0.455083,0.1905 -0.963083,0.1905 -0.60325,0 -1.2065,-0.211666 -0.592667,-0.22225 -1.005417,-0.762 z" />
        <path
           id="path1154"
           style="fill:#3c3c3b;fill-opacity:1"
           d="m 99.48242,16.531083 q -0.264583,0 -0.41275,-0.148167 -0.137583,-0.148167 -0.137583,-0.41275 v -0.1905 q 0,-0.264583 0.137583,-0.41275 0.148167,-0.148167 0.41275,-0.148167 h 0.116417 q 0.264583,0 0.402163,0.148167 0.13759,0.148167 0.13759,0.41275 v 0.1905 q 0,0.264583 -0.13759,0.41275 -0.13758,0.148167 -0.402163,0.148167 z" />
        <path
           id="path1156"
           style="fill:#3c3c3b;fill-opacity:1"
           d="m 104.27667,10.847833 q 0.74084,0 1.31234,0.370417 0.58208,0.370416 0.92075,1.026583 0.33866,0.645583 0.33866,1.49225 0,0.846666 -0.33866,1.502833 -0.33867,0.656167 -0.91017,1.037167 -0.5715,0.370416 -1.29117,0.370416 -0.40216,0 -0.762,-0.127 -0.35983,-0.137583 -0.635,-0.338666 -0.27516,-0.211667 -0.45508,-0.4445 -0.16933,-0.232834 -0.21166,-0.433917 l 0.28575,-0.137583 v 0.92075 q 0,0.22225 -0.15875,0.381 -0.14817,0.148166 -0.37042,0.148166 -0.23283,0 -0.381,-0.148166 -0.14817,-0.148167 -0.14817,-0.381 V 9.2497496 q 0,-0.2328333 0.14817,-0.381 0.14817,-0.15875 0.381,-0.15875 0.22225,0 0.37042,0.15875 0.15875,0.1481667 0.15875,0.381 v 2.9739164 l -0.16934,-0.09525 q 0.0318,-0.201083 0.20109,-0.41275 0.16933,-0.22225 0.42333,-0.423333 0.26458,-0.201083 0.59266,-0.3175 0.33867,-0.127 0.6985,-0.127 z m -0.11641,0.973667 q -0.508,0 -0.889,0.253999 -0.37042,0.254 -0.58208,0.687917 -0.21167,0.423333 -0.21167,0.973667 0,0.550333 0.21167,0.994833 0.21166,0.433917 0.58208,0.687917 0.381,0.254 0.889,0.254 0.49741,0 0.86783,-0.254 0.37042,-0.254 0.58208,-0.6985 0.22225,-0.4445 0.22225,-0.98425 0,-0.550334 -0.22225,-0.973667 -0.21166,-0.433917 -0.58208,-0.687917 -0.37042,-0.253999 -0.86783,-0.253999 z" />
        <path
           id="path1158"
           style="fill:#3c3c3b;fill-opacity:1"
           d="m 110.53141,16.647499 q -0.86783,0 -1.524,-0.359833 -0.64558,-0.370417 -1.00542,-1.005417 -0.34925,-0.645583 -0.34925,-1.471083 0,-0.931333 0.37042,-1.5875 0.381,-0.66675 0.98425,-1.016 0.61383,-0.359833 1.29117,-0.359833 0.508,0 0.97366,0.211667 0.47625,0.201083 0.83609,0.5715 0.35983,0.359833 0.5715,0.857249 0.21166,0.486834 0.22225,1.068917 -0.0106,0.211667 -0.16934,0.34925 -0.15875,0.137583 -0.37041,0.137583 h -4.10634 l -0.254,-0.899583 h 3.97934 l -0.20109,0.1905 v -0.264583 q -0.0318,-0.370417 -0.254,-0.645584 -0.22225,-0.28575 -0.55033,-0.433916 -0.3175,-0.15875 -0.67733,-0.15875 -0.3175,0 -0.61384,0.105833 -0.29633,0.09525 -0.51858,0.3175 -0.22225,0.22225 -0.35983,0.592667 -0.13759,0.359833 -0.13759,0.899583 0,0.582083 0.24342,1.016 0.24342,0.433917 0.65617,0.677333 0.41275,0.232834 0.92075,0.232834 0.381,0 0.635,-0.07408 0.254,-0.08467 0.42333,-0.201083 0.16933,-0.116417 0.29633,-0.22225 0.16934,-0.09525 0.3175,-0.09525 0.1905,0 0.3175,0.137583 0.127,0.127 0.127,0.306917 0,0.232833 -0.23283,0.423333 -0.28575,0.275167 -0.79375,0.486834 -0.49742,0.211666 -1.04775,0.211666 z" />
      </g>
    </g>
    <g
       id="text939"
       style="font-style:normal;font-weight:normal;font-size:10.58333302px;line-height:1.25;font-family:sans-serif;letter-spacing:0px;word-spacing:0px;fill:#3c3c3b;fill-opacity:1;stroke:none;stroke-width:0.26458332"
       aria-label="Par">
      <path
         id="path1181"
         style="font-style:normal;font-variant:normal;font-weight:600;font-stretch:normal;font-size:4.93888903px;font-family:Quicksand;-inkscape-font-specification:'Quicksand, Semi-Bold';font-variant-ligatures:normal;font-variant-position:normal;font-variant-caps:normal;font-variant-numeric:normal;font-feature-settings:normal;text-align:start;writing-mode:lr-tb;text-anchor:start;fill:#3c3c3b;fill-opacity:1;stroke-width:0.26458332"
         d="m 87.87214,19.461399 q 0.261761,0 0.484011,0.143228 0.22225,0.138288 0.3556,0.380294 0.13335,0.242006 0.13335,0.543278 0,0.301272 -0.13335,0.548216 -0.13335,0.242006 -0.3556,0.390173 -0.22225,0.143227 -0.484011,0.143227 h -0.953206 l 0.03951,-0.07902 v 1.135945 q 0,0.108655 -0.06914,0.182739 -0.06421,0.06914 -0.172862,0.06914 -0.103716,0 -0.172861,-0.06914 -0.06421,-0.07408 -0.06421,-0.182739 v -2.953456 q 0,-0.108655 0.07408,-0.1778 0.07408,-0.07408 0.1778,-0.07408 z m 0,1.674283 q 0.128411,0 0.232127,-0.08396 0.108656,-0.08396 0.172861,-0.22225 0.06914,-0.138289 0.06914,-0.301272 0,-0.162984 -0.06914,-0.296334 -0.06421,-0.13335 -0.172861,-0.212372 -0.103716,-0.08396 -0.232127,-0.08396 h -0.963084 l 0.04939,-0.07408 v 1.338439 l -0.04445,-0.06421 z" />
      <path
         id="path1183"
         style="font-style:normal;font-variant:normal;font-weight:600;font-stretch:normal;font-size:4.93888903px;font-family:Quicksand;-inkscape-font-specification:'Quicksand, Semi-Bold';font-variant-ligatures:normal;font-variant-position:normal;font-variant-caps:normal;font-variant-numeric:normal;font-feature-settings:normal;text-align:start;writing-mode:lr-tb;text-anchor:start;fill:#3c3c3b;fill-opacity:1;stroke-width:0.26458332"
         d="m 91.477522,20.281254 q 0.103717,0 0.172862,0.07408 0.07408,0.06914 0.07408,0.1778 v 2.1336 q 0,0.108655 -0.07408,0.182739 -0.06915,0.06914 -0.172862,0.06914 -0.108655,0 -0.1778,-0.06914 -0.06914,-0.07408 -0.06914,-0.182739 v -0.3556 l 0.09878,0.01482 q 0,0.0889 -0.07408,0.197556 -0.06914,0.108655 -0.192616,0.212372 -0.123472,0.09878 -0.291395,0.167922 -0.167922,0.06421 -0.360539,0.06421 -0.340783,0 -0.612422,-0.172861 -0.271639,-0.1778 -0.429683,-0.484011 -0.158045,-0.306211 -0.158045,-0.696384 0,-0.40005 0.158045,-0.701322 0.158044,-0.306211 0.424744,-0.479072 0.271639,-0.172861 0.602545,-0.172861 0.212372,0 0.390172,0.06914 0.182739,0.06915 0.316089,0.1778 0.13335,0.108656 0.207433,0.232128 0.07408,0.118533 0.07408,0.227189 l -0.153106,0.01482 v -0.449439 q 0,-0.103717 0.06914,-0.1778 0.06914,-0.07408 0.1778,-0.07408 z m -1.007533,2.232378 q 0.232128,0 0.404989,-0.118533 0.1778,-0.118534 0.276578,-0.321028 0.09878,-0.207433 0.09878,-0.459317 0,-0.256822 -0.09878,-0.459316 -0.09878,-0.202495 -0.276578,-0.321028 -0.172861,-0.118533 -0.404989,-0.118533 -0.227189,0 -0.404989,0.118533 -0.1778,0.118533 -0.276578,0.321028 -0.09878,0.202494 -0.09878,0.459316 0,0.251884 0.09878,0.459317 0.09878,0.202494 0.271639,0.321028 0.1778,0.118533 0.409928,0.118533 z" />
      <path
         id="path1185"
         style="font-style:normal;font-variant:normal;font-weight:600;font-stretch:normal;font-size:4.93888903px;font-family:Quicksand;-inkscape-font-specification:'Quicksand, Semi-Bold';font-variant-ligatures:normal;font-variant-position:normal;font-variant-caps:normal;font-variant-numeric:normal;font-feature-settings:normal;text-align:start;writing-mode:lr-tb;text-anchor:start;fill:#3c3c3b;fill-opacity:1;stroke-width:0.26458332"
         d="m 92.657913,22.918621 q -0.108655,0 -0.1778,-0.06914 -0.06914,-0.07408 -0.06914,-0.182739 v -2.094089 q 0,-0.108656 0.06914,-0.1778 0.06914,-0.07408 0.1778,-0.07408 0.103717,0 0.172861,0.07408 0.07408,0.06914 0.07408,0.1778 v 0.553155 l -0.04939,-0.212372 q 0.03951,-0.138289 0.118533,-0.256822 0.08396,-0.118533 0.197556,-0.207433 0.113594,-0.0889 0.251883,-0.138289 0.143228,-0.04939 0.296333,-0.04939 0.128412,0 0.22225,0.06914 0.09384,0.06915 0.09384,0.172861 0,0.13335 -0.06914,0.197556 -0.06914,0.05927 -0.153106,0.05927 -0.07408,0 -0.143227,-0.02963 -0.06914,-0.03457 -0.162984,-0.03457 -0.103716,0 -0.212372,0.05433 -0.108656,0.05433 -0.197556,0.162983 -0.0889,0.103717 -0.143227,0.246945 -0.04939,0.143227 -0.04939,0.321027 v 1.185334 q 0,0.108655 -0.07408,0.182739 -0.06914,0.06914 -0.172861,0.06914 z" />
    </g>
    <g
       transform="matrix(0.01756126,0,0,0.01756126,95.706965,18.387645)"
       id="Calque_2-7"
       data-name="Calque 2">
      <g
         id="Calque_1-2-3"
         data-name="Calque 1">
        <path
           style="fill:#3c3c3b"
           class="cls-1"
           d="M 451.63,24.9 A 15.84,15.84 0 1 0 433.28,37.75 15.83,15.83 0 0 0 451.63,24.9"
           id="path1067" />
        <path
           style="fill:#3c3c3b"
           class="cls-1"
           d="M 885.86,24.9 A 15.85,15.85 0 1 0 867.51,37.75 15.83,15.83 0 0 0 885.86,24.9"
           id="path1069" />
        <path
           style="fill:#3c3c3b"
           class="cls-1"
           d="m 451,110.37 v 178.22 q 0,14.93 -14.81,14.93 -14.81,0 -14.8,-14.93 V 110.37 q 0,-14.72 14.8,-14.71 14.8,0.01 14.81,14.71"
           id="path1071" />
        <path
           style="fill:#de047b"
           class="cls-2"
           d="m 817.25,289.23 q 0,14.28 -15.38,14.29 -11.68,0 -14.15,-11.61 l -49.34,-222 -69.78,162.75 q -4.89,11.64 -14.7,11.64 -9.81,0 -14.7,-11.64 L 569.29,69.53 519.88,291.86 q -2.43,11.65 -14.05,11.66 -15.27,0 -15.28,-14.29 a 11.51,11.51 0 0 1 0.62,-3.68 L 550,20.92 q 3,-14.29 15.12,-14.29 9.61,0 14.53,11.4 L 653.91,191.29 728.16,18 q 4.9,-11.4 14.53,-11.4 12.07,0 15.35,14.29 l 58.8,264.63 a 16.41,16.41 0 0 1 0.41,3.68"
           id="path1073" />
        <path
           style="fill:#3c3c3b"
           class="cls-1"
           d="m 886.27,110.37 v 178.22 q 0,14.93 -14.81,14.93 -14.81,0 -14.8,-14.93 V 110.37 q 0,-14.72 14.8,-14.71 14.8,0.01 14.81,14.71"
           id="path1075" />
        <path
           style="fill:#3c3c3b"
           class="cls-1"
           d="m 1133.74,199.48 q 0,43.13 -30.52,73.58 -30.52,30.45 -73.41,30.46 -42.88,0 -73.41,-30.46 -30.53,-30.46 -30.53,-73.58 0,-42.91 30.53,-73.37 30.53,-30.46 73.41,-30.45 42.87,0 73.41,30.45 30.54,30.45 30.52,73.37 m -29.61,0 q 0,-30.47 -21.81,-52.34 -21.81,-21.87 -52.51,-21.88 -30.72,0 -52.52,21.88 -21.8,21.88 -21.81,52.34 0,30.68 21.81,52.55 21.81,21.87 52.52,21.88 30.7,0 52.51,-21.88 21.81,-21.88 21.81,-52.55"
           id="path1077" />
        <path
           style="fill:#de047b"
           class="cls-2"
           d="m 198.1,182.13 a 14.51,14.51 0 1 0 -14.51,-14.5 14.5,14.5 0 0 0 14.51,14.5"
           id="path1079" />
        <path
           style="fill:#de047b"
           class="cls-2"
           d="m 248.21,179.5 a 11.87,11.87 0 1 0 -11.87,-11.87 11.87,11.87 0 0 0 11.87,11.87"
           id="path1081" />
        <path
           style="fill:#de047b"
           class="cls-2"
           d="m 295,175.35 a 7.73,7.73 0 1 0 -7.73,-7.72 7.73,7.73 0 0 0 7.73,7.72"
           id="path1083" />
        <path
           style="fill:#3c3c3b"
           class="cls-1"
           d="m 219.32,137 a 14.5,14.5 0 1 0 -20.44,-1.79 14.5,14.5 0 0 0 20.44,1.79"
           id="path1085" />
        <path
           style="fill:#3c3c3b"
           class="cls-1"
           d="m 256,102.74 a 11.86,11.86 0 1 0 -16.72,-1.46 11.85,11.85 0 0 0 16.72,1.46"
           id="path1087" />
        <path
           style="fill:#3c3c3b"
           class="cls-1"
           d="m 289.2,69.48 a 7.73,7.73 0 1 0 -10.88,-1 7.71,7.71 0 0 0 10.88,1"
           id="path1089" />
        <path
           style="fill:#3c3c3b"
           class="cls-1"
           d="m 186.34,105.7 a 14.51,14.51 0 1 0 -16.81,11.76 14.51,14.51 0 0 0 16.81,-11.76"
           id="path1091" />
        <path
           style="fill:#3c3c3b"
           class="cls-1"
           d="m 192.44,55.89 a 11.87,11.87 0 1 0 -13.75,9.63 11.87,11.87 0 0 0 13.75,-9.63"
           id="path1093" />
        <path
           style="fill:#3c3c3b"
           class="cls-1"
           d="m 196.49,9.07 a 7.73,7.73 0 1 0 -9,6.27 7.72,7.72 0 0 0 9,-6.27"
           id="path1095" />
        <path
           style="fill:#3c3c3b"
           class="cls-1"
           d="m 141,102.93 a 14.5,14.5 0 1 0 -5.31,19.82 14.51,14.51 0 0 0 5.31,-19.82"
           id="path1097" />
        <path
           style="fill:#3c3c3b"
           class="cls-1"
           d="m 113.63,60.85 a 11.87,11.87 0 1 0 -4.34,16.22 11.87,11.87 0 0 0 4.34,-16.22"
           id="path1099" />
        <path
           style="fill:#3c3c3b"
           class="cls-1"
           d="M 86.64,22.39 A 7.72,7.72 0 1 0 83.81,32.94 7.71,7.71 0 0 0 86.64,22.39"
           id="path1101" />
        <path
           style="fill:#3c3c3b"
           class="cls-1"
           d="m 104.44,130 a 14.5,14.5 0 1 0 8.67,18.59 14.5,14.5 0 0 0 -8.67,-18.59"
           id="path1103" />
        <path
           style="fill:#3c3c3b"
           class="cls-1"
           d="m 56.45,115.32 a 11.86,11.86 0 1 0 7.1,15.21 11.86,11.86 0 0 0 -7.1,-15.21"
           id="path1105" />
        <path
           style="fill:#3c3c3b"
           class="cls-1"
           d="m 11.05,103.2 a 7.73,7.73 0 1 0 4.62,9.9 7.73,7.73 0 0 0 -4.62,-9.9"
           id="path1107" />
        <path
           style="fill:#3c3c3b"
           class="cls-1"
           d="m 93.84,174.17 a 14.51,14.51 0 1 0 18.59,8.67 14.53,14.53 0 0 0 -18.59,-8.67"
           id="path1109" />
        <path
           style="fill:#3c3c3b"
           class="cls-1"
           d="m 47.66,193.79 a 11.87,11.87 0 1 0 15.21,7.09 11.86,11.86 0 0 0 -15.21,-7.09"
           id="path1111" />
        <path
           style="fill:#3c3c3b"
           class="cls-1"
           d="m 5.09,213.69 a 7.73,7.73 0 1 0 9.9,4.62 7.73,7.73 0 0 0 -9.9,-4.62"
           id="path1113" />
        <path
           style="fill:#3c3c3b"
           class="cls-1"
           d="m 114.13,214.85 a 14.51,14.51 0 1 0 19.87,-5.31 14.51,14.51 0 0 0 -19.82,5.31"
           id="path1115" />
        <path
           style="fill:#3c3c3b"
           class="cls-1"
           d="m 91.36,259.56 a 11.87,11.87 0 1 0 16.22,-4.35 11.87,11.87 0 0 0 -16.22,4.35"
           id="path1117" />
        <path
           style="fill:#3c3c3b"
           class="cls-1"
           d="m 71.54,302.17 a 7.73,7.73 0 1 0 10.56,-2.83 7.74,7.74 0 0 0 -10.56,2.83"
           id="path1119" />
        <path
           style="fill:#3c3c3b"
           class="cls-1"
           d="M 155.82,233 A 14.51,14.51 0 1 0 167.59,216.19 14.49,14.49 0 0 0 155.82,233"
           id="path1121" />
        <path
           style="fill:#3c3c3b"
           class="cls-1"
           d="m 167.12,281.85 a 11.87,11.87 0 1 0 9.63,-13.75 11.85,11.85 0 0 0 -9.63,13.75"
           id="path1123" />
        <path
           style="fill:#3c3c3b"
           class="cls-1"
           d="m 179.32,327.23 a 7.73,7.73 0 1 0 6.27,-9 7.74,7.74 0 0 0 -6.27,9"
           id="path1125" />
        <path
           style="fill:#3c3c3b"
           class="cls-1"
           d="M 199.4,220 A 14.51,14.51 0 1 0 197.61,199.56 14.5,14.5 0 0 0 199.4,220"
           id="path1127" />
        <path
           style="fill:#3c3c3b"
           class="cls-1"
           d="M 239.48,250.23 A 11.87,11.87 0 1 0 238,233.5 a 11.87,11.87 0 0 0 1.47,16.73"
           id="path1129" />
        <path
           style="fill:#3c3c3b"
           class="cls-1"
           d="m 278,277.15 a 7.73,7.73 0 1 0 -0.95,-10.89 7.72,7.72 0 0 0 0.95,10.89"
           id="path1131" />
        <path
           style="fill:#de047b"
           class="cls-2"
           d="m 177.67,167.63 a 20.42,20.42 0 0 1 12.52,-18.84 36.26,36.26 0 1 0 0,37.68 20.43,20.43 0 0 1 -12.52,-18.84"
           id="path1133" />
      </g>
    </g>
    <path
       id="path1180"
       d="M 35.775803,16.669568 H 83.596935 115.28387 Z"
       style="opacity:1;fill:#3c3c3b;fill-opacity:1;stroke:#3c3c3b;stroke-width:1;stroke-linecap:round;stroke-linejoin:round;stroke-miterlimit:17.60000038;stroke-dasharray:none;stroke-dashoffset:0;stroke-opacity:1" />
  </g>
</svg>
